<svg width="104" height="104" viewBox="0 0 104 104" fill="none" xmlns="http://www.w3.org/2000/svg">
<g id="Group 155">
<rect id="Rectangle 26" width="104" height="104" rx="30" fill="#222228"/>
<g id="Group">
<path id="Vector" d="M58.2793 75H42.5469C36.7313 75 32 70.1635 32 64.2188V39.7812C32 33.8365 36.7313 29 42.5469 29H58.6308C59.6017 29 60.3887 29.8045 60.3887 30.7969C60.3887 31.7893 59.6017 32.5938 58.6308 32.5938H42.5469C38.6698 32.5938 35.5156 35.8181 35.5156 39.7813V64.2189C35.5156 68.1821 38.6698 71.4063 42.5469 71.4063H58.2793C62.1563 71.4063 65.3105 68.1821 65.3105 64.2189V53.4375C65.3105 52.4451 66.0975 51.6406 67.0684 51.6406C68.0392 51.6406 68.8262 52.4451 68.8262 53.4375V64.2188C68.8261 70.1635 64.0949 75 58.2793 75ZM58.2723 50.2581L63.2525 49.2406C65.7223 48.7359 67.969 47.507 69.7499 45.6865L75.1208 40.1962C77.6224 37.6391 77.6224 33.4781 75.1208 30.921C72.6191 28.3638 68.5488 28.3638 66.0472 30.921L60.6763 36.4113C58.8954 38.2317 57.6932 40.5283 57.1994 43.0531L56.204 48.144C56.0889 48.7331 56.2692 49.342 56.6848 49.7668C57.0177 50.1071 57.4662 50.293 57.9277 50.293C58.0423 50.293 58.1576 50.2816 58.2723 50.2581ZM72.6349 33.4622C73.1827 34.0221 73.4845 34.7667 73.4845 35.5586C73.4845 36.3505 73.1827 37.0951 72.6349 37.655L67.264 43.1453C65.9756 44.4623 64.3503 45.3514 62.5635 45.7164L60.1683 46.2058L60.647 43.7575C61.0042 41.9309 61.8739 40.2693 63.1623 38.9524L68.5332 33.4622C69.081 32.9022 69.8094 32.5937 70.5841 32.5937C71.3588 32.5937 72.0871 32.9022 72.6349 33.4622ZM60.0371 60.625H40.8769C39.9061 60.625 39.1191 59.8205 39.1191 58.8281C39.1191 57.8357 39.9061 57.0312 40.8769 57.0312H60.037C61.0079 57.0312 61.7949 57.8357 61.7949 58.8281C61.7949 59.8205 61.008 60.625 60.0371 60.625ZM50.5449 63.7695C49.3314 63.7695 48.3476 64.7751 48.3476 66.0156C48.3476 67.2561 49.3314 68.2617 50.5449 68.2617C51.7584 68.2617 52.7421 67.2561 52.7421 66.0156C52.7422 64.7751 51.7584 63.7695 50.5449 63.7695Z" fill="white"/>
</g>
</g>
</svg>
