<svg width="44" height="46" viewBox="0 0 44 46" fill="none" xmlns="http://www.w3.org/2000/svg">
<g id="026-rotate" clip-path="url(#clip0_408_1998)">
<g id="Group">
<path id="Vector" d="M22.0429 46C18.0388 46 14.7813 42.5943 14.7813 38.4082V7.59176C14.7813 3.40565 18.0388 0 22.0429 0C26.047 0 29.3046 3.40574 29.3046 7.59176V38.4082C29.3047 42.5943 26.0471 46 22.0429 46ZM22.0429 3.59374C19.9343 3.59374 18.2187 5.3873 18.2187 7.59176V38.4082C18.2187 40.6126 19.9343 42.4062 22.0429 42.4062C24.1516 42.4062 25.8671 40.6126 25.8671 38.4082V7.59176C25.8672 5.3873 24.1516 3.59374 22.0429 3.59374ZM8.86056 40.25C8.46661 40.25 8.07085 40.1093 7.74736 39.8213C2.82382 35.4401 0 29.0538 0 22.3001C0 18.7853 0.738449 15.4084 2.19466 12.2633C2.60831 11.3701 3.63595 10.9963 4.49053 11.4288C5.34493 11.8613 5.70229 12.9359 5.28873 13.8291C4.06031 16.4821 3.43749 19.3321 3.43749 22.3001C3.43749 27.9986 5.82048 33.3874 9.97557 37.0849C10.6984 37.7281 10.7856 38.8621 10.1703 39.6179C9.83035 40.0352 9.34698 40.25 8.86056 40.25ZM11.3438 13.9258L11.3437 9.61348C11.3493 8.2889 10.861 7.04584 9.96807 6.11244C9.08036 5.1843 7.89983 4.67431 6.64093 4.67431C6.63384 4.67431 6.62683 4.67431 6.61975 4.67431L2.57913 4.67189C2.5788 4.67189 2.57847 4.67189 2.57806 4.67189C1.62928 4.67189 0.85993 5.4757 0.859271 6.46769C0.858694 7.46011 1.62772 8.26512 2.57699 8.26564L6.62181 8.26805H6.6326C6.97686 8.26753 7.29754 8.40289 7.5372 8.65354C7.77695 8.90419 7.90791 9.24013 7.90593 9.59935V9.6096L7.9061 13.9258C7.9061 14.9181 8.6757 15.7227 9.62489 15.7227C10.5742 15.7226 11.3438 14.9181 11.3438 13.9258ZM41.8053 33.7367C43.2616 30.5915 44 27.2146 44 23.6999C44 16.9462 41.1762 10.56 36.2526 6.17861C35.5298 5.53541 34.4449 5.62649 33.8298 6.3823C33.2144 7.13795 33.3016 8.2721 34.0245 8.9153C38.1795 12.6127 40.5625 18.0016 40.5625 23.7C40.5625 26.6679 39.9396 29.518 38.7113 32.171C38.2976 33.0642 38.6551 34.1389 39.5095 34.5713C39.7508 34.6933 40.0059 34.7512 40.2571 34.7512C40.8954 34.7511 41.5085 34.3777 41.8053 33.7367ZM43.1406 39.5323C43.1412 38.5399 42.3722 37.735 41.4229 37.7344L37.3781 37.7319C37.3719 37.7319 37.3658 37.732 37.3597 37.732C37.019 37.732 36.7006 37.5953 36.4627 37.3465C36.223 37.0959 36.092 36.76 36.094 36.4007C36.094 36.3973 36.094 36.3939 36.094 36.3905L36.0938 32.0742C36.0938 31.0818 35.3242 30.2773 34.375 30.2773C33.4258 30.2773 32.6562 31.0819 32.6562 32.0742L32.6563 36.3865C32.6507 37.711 33.139 38.9542 34.0319 39.8876C34.9196 40.8156 36.1002 41.3258 37.3591 41.3258C37.3662 41.3258 37.3732 41.3257 37.3803 41.3257L41.4209 41.3281H41.4219C42.3706 41.3281 43.14 40.5244 43.1406 39.5323Z" fill="white"/>
</g>
</g>
<defs>
<clipPath id="clip0_408_1998">
<rect width="44" height="46" fill="white"/>
</clipPath>
</defs>
</svg>
