<svg width="104" height="104" viewBox="0 0 104 104" fill="none" xmlns="http://www.w3.org/2000/svg">
<g id="Group 156">
<rect id="Rectangle 27" width="104" height="104" rx="30" fill="#222228"/>
<g id="Group">
<path id="Vector" d="M63.4531 75H53.4336C47.6181 75 42.8867 70.1635 42.8867 64.2188V53.9766C42.8867 48.0318 47.6181 43.1953 53.4336 43.1953H63.4531C69.2687 43.1953 74 48.0318 74 53.9766V64.2188C74 70.1635 69.2687 75 63.4531 75ZM53.4336 46.7891C49.5565 46.7891 46.4024 50.0134 46.4024 53.9766V64.2188C46.4024 68.182 49.5565 71.4063 53.4336 71.4063H63.4531C67.3302 71.4063 70.4844 68.182 70.4844 64.2188V53.9766C70.4844 50.0134 67.3302 46.7891 63.4531 46.7891H53.4336ZM39.1339 62.4239C39.6963 61.615 39.5108 60.4932 38.7195 59.9182C34.8348 57.096 32.5156 52.5069 32.5156 47.6425C32.5156 39.3446 39.1197 32.5937 47.2373 32.5937C52.0341 32.5937 56.5441 34.9945 59.3017 39.0157C59.859 39.8283 60.9552 40.0254 61.7501 39.4556C62.545 38.886 62.7377 37.7655 62.1805 36.9529C58.7656 31.9731 53.1793 29 47.2373 29C37.1812 29 29 37.363 29 47.6426C29 53.6684 31.8721 59.3525 36.6829 62.8477C36.9919 63.0722 37.3474 63.18 37.6997 63.18C38.2495 63.18 38.7912 62.9169 39.1339 62.4239Z" fill="white"/>
</g>
</g>
</svg>
