<svg width="104" height="104" viewBox="0 0 104 104" fill="none" xmlns="http://www.w3.org/2000/svg">
<g id="Group 171">
<rect id="Rectangle 42" width="104" height="104" rx="30" fill="#222228"/>
<g id="Group 141">
<g id="Group">
<path id="Vector" d="M32.5156 39.2445V44.4688C32.5156 45.4396 33.3026 46.2266 34.2735 46.2266C35.2443 46.2266 36.0313 45.4396 36.0313 44.4688V39.2445C37.527 38.714 38.7141 37.527 39.2446 36.0312H44.5567C45.5275 36.0312 46.3145 35.2442 46.3145 34.2734C46.3145 33.3025 45.5275 32.5155 44.5567 32.5155H39.2445C38.5188 30.4697 36.565 29 34.2735 29C31.3657 29 29 31.3657 29 34.2735C29 36.565 30.4697 38.5188 32.5156 39.2445ZM34.2735 32.5156C35.2427 32.5156 36.0313 33.3041 36.0313 34.2735C36.0313 35.2428 35.2428 36.0313 34.2735 36.0313C33.3041 36.0313 32.5156 35.2428 32.5156 34.2735C32.5156 33.3041 33.3041 32.5156 34.2735 32.5156ZM58.3555 36.0312H63.7555C64.286 37.527 65.473 38.714 66.9688 39.2445V44.4688C66.9688 45.4396 67.7558 46.2266 68.7266 46.2266C69.6974 46.2266 70.4845 45.4396 70.4845 44.4688V39.2445C72.5304 38.5189 74.0001 36.565 74.0001 34.2734C74 31.3657 71.6343 29 68.7265 29C66.435 29 64.4811 30.4697 63.7554 32.5156H58.3554C57.3846 32.5156 56.5976 33.3026 56.5976 34.2735C56.5976 35.2443 57.3846 36.0312 58.3555 36.0312ZM68.7265 32.5156C69.6958 32.5156 70.4844 33.3041 70.4844 34.2735C70.4844 35.2428 69.6959 36.0313 68.7265 36.0313C67.7573 36.0313 66.9687 35.2428 66.9687 34.2735C66.9687 33.3041 67.7573 32.5156 68.7265 32.5156ZM61.353 44.6603L54.2255 51.7503L61.289 58.8758C61.9724 59.5653 61.9676 60.6783 61.2781 61.3617C60.9354 61.7014 60.488 61.8711 60.0406 61.8711C59.5881 61.8711 59.1358 61.6976 58.7922 61.3508L51.7329 54.2296L44.6536 61.2716C44.3106 61.6128 43.8622 61.7832 43.414 61.7832C42.9625 61.7832 42.5112 61.6104 42.1677 61.265C41.483 60.5767 41.4859 59.4637 42.1742 58.7791L49.2578 51.7329L42.2382 44.6517C41.5548 43.9622 41.5596 42.8492 42.2491 42.1658C42.9385 41.4824 44.0514 41.4871 44.7349 42.1767L51.7503 49.2536L58.8734 42.1679C59.5618 41.4833 60.6748 41.4863 61.3593 42.1745C62.0442 42.8627 62.0412 43.9757 61.353 44.6603ZM70.4844 63.7555V58.3555C70.4844 57.3846 69.6974 56.5976 68.7265 56.5976C67.7557 56.5976 66.9687 57.3846 66.9687 58.3555V63.7555C65.473 64.286 64.2859 65.473 63.7554 66.9688H58.5312C57.5603 66.9688 56.7733 67.7558 56.7733 68.7266C56.7733 69.6974 57.5603 70.4845 58.5312 70.4845H63.7554C64.481 72.5304 66.435 74.0001 68.7265 74.0001C71.6343 74.0001 74 71.6344 74 68.7266C74 66.435 72.5302 64.4811 70.4844 63.7555ZM68.7265 70.4844C67.7573 70.4844 66.9687 69.6959 66.9687 68.7265C66.9687 67.7572 67.7572 66.9687 68.7265 66.9687C69.6958 66.9687 70.4844 67.7572 70.4844 68.7265C70.4844 69.6959 69.6958 70.4844 68.7265 70.4844ZM44.5567 66.9688H39.2445C38.714 65.473 37.527 64.286 36.0312 63.7555V58.4434C36.0312 57.4726 35.2442 56.6856 34.2734 56.6856C33.3025 56.6856 32.5155 57.4726 32.5155 58.4434V63.7555C30.4697 64.4811 29 66.435 29 68.7265C29 71.6343 31.3657 74 34.2735 74C36.565 74 38.5189 72.5303 39.2446 70.4844H44.5567C45.5275 70.4844 46.3145 69.6974 46.3145 68.7265C46.3145 67.7557 45.5275 66.9688 44.5567 66.9688ZM34.2735 70.4844C33.3042 70.4844 32.5156 69.6959 32.5156 68.7265C32.5156 67.7572 33.3041 66.9687 34.2735 66.9687C35.2428 66.9687 36.0313 67.7572 36.0313 68.7265C36.0313 69.6959 35.2427 70.4844 34.2735 70.4844ZM53.6093 34.2735C53.6093 35.487 52.6256 36.4707 51.4121 36.4707C50.1986 36.4707 49.2148 35.487 49.2148 34.2735C49.2148 33.06 50.1986 32.0762 51.4121 32.0762C52.6256 32.0761 53.6093 33.06 53.6093 34.2735ZM51.4121 66.5293C50.1986 66.5293 49.2148 67.513 49.2148 68.7265C49.2148 69.94 50.1986 70.9238 51.4121 70.9238C52.6256 70.9238 53.6093 69.94 53.6093 68.7265C53.6093 67.513 52.6256 66.5293 51.4121 66.5293ZM68.7265 49.4785C67.513 49.4785 66.5293 50.4622 66.5293 51.6757C66.5293 52.8893 67.513 53.873 68.7265 53.873C69.94 53.873 70.9238 52.8893 70.9238 51.6757C70.9238 50.4622 69.94 49.4785 68.7265 49.4785ZM34.2735 49.4785C33.06 49.4785 32.0762 50.4622 32.0762 51.6757C32.0762 52.8893 33.06 53.873 34.2735 53.873C35.487 53.873 36.4707 52.8893 36.4707 51.6757C36.4707 50.4622 35.487 49.4785 34.2735 49.4785Z" fill="white"/>
</g>
</g>
</g>
</svg>
