<svg width="104" height="104" viewBox="0 0 104 104" fill="none" xmlns="http://www.w3.org/2000/svg">
<g id="Group 172">
<rect id="Rectangle 43" width="104" height="104" rx="30" fill="#222228"/>
<g id="Group 142">
<g id="Group">
<path id="Vector" d="M58.6614 49.8487C58.2115 49.8487 57.7618 49.6772 57.4185 49.334C56.7319 48.6475 56.7319 47.5344 57.4185 46.848L71.9992 32.2673C72.6856 31.5807 73.7986 31.5807 74.485 32.2673C75.1716 32.9538 75.1716 34.0668 74.485 34.7533L59.9043 49.334C59.5611 49.6771 59.1113 49.8487 58.6614 49.8487ZM34.7585 74.4798L49.3392 59.8991C50.0257 59.2126 50.0257 58.0996 49.3392 57.4132C48.6526 56.7267 47.5397 56.7267 46.8533 57.4132L32.2726 71.9938C31.5861 72.6803 31.5861 73.7934 32.2726 74.4797C32.6159 74.823 33.0657 74.9945 33.5156 74.9945C33.9654 74.9946 34.4153 74.823 34.7585 74.4798ZM46.9919 54.1445C47.8734 53.7377 48.2583 52.6933 47.8514 51.8118C47.4446 50.9305 46.4004 50.5455 45.5188 50.9524C41.3101 52.8945 36.2796 51.9968 33.0007 48.7179C32.3142 48.0314 31.2012 48.0314 30.5149 48.7179C29.8284 49.4045 29.8283 50.5175 30.5149 51.2039C32.6729 53.362 35.3991 54.7718 38.3989 55.2812C39.2236 55.4212 40.0513 55.4907 40.8752 55.4907C42.9799 55.4906 45.0586 55.0367 46.9919 54.1445ZM54.1443 46.992C55.3857 44.3021 55.7786 41.3306 55.281 38.3989C54.7717 35.3992 53.3618 32.673 51.2037 30.5149C50.5172 29.8284 49.4043 29.8284 48.7179 30.5149C48.0315 31.2014 48.0313 32.3145 48.7179 33.0009C51.9967 36.2797 52.8945 41.3102 50.9523 45.5189C50.5455 46.4004 50.9303 47.4447 51.8118 47.8515C52.0503 47.9617 52.3008 48.0138 52.5473 48.0138C53.2117 48.0137 53.8476 47.635 54.1443 46.992ZM57.3339 69.2817C56.3631 69.2817 55.5761 68.4947 55.5761 67.5239V60.8442C55.5761 57.9364 57.9417 55.5707 60.8496 55.5707H67.6171C68.588 55.5707 69.375 56.3577 69.375 57.3286C69.375 58.2994 68.588 59.0864 67.6171 59.0864H60.8496C59.8803 59.0864 59.0917 59.8749 59.0917 60.8443V67.5239C59.0917 68.4947 58.3048 69.2817 57.3339 69.2817ZM74.4907 74.4742C75.174 73.7847 75.169 72.6717 74.4795 71.9884L64.6357 62.2325C63.9462 61.5492 62.8332 61.554 62.1499 62.2436C61.4665 62.9331 61.4715 64.0461 62.161 64.7294L72.0047 74.4853C72.3475 74.825 72.7948 74.9947 73.2421 74.9947C73.6946 74.9946 74.1469 74.821 74.4907 74.4742ZM51.8251 51.8198C50.9671 52.6779 50.9671 54.0691 51.8251 54.9273C52.6832 55.7853 54.0744 55.7853 54.9325 54.9273C55.7906 54.0692 55.7906 52.678 54.9325 51.8198C54.0745 50.9618 52.6832 50.9618 51.8251 51.8198Z" fill="white"/>
</g>
</g>
</g>
</svg>
