<svg width="104" height="104" viewBox="0 0 104 104" fill="none" xmlns="http://www.w3.org/2000/svg">
<g id="Group 173">
<rect id="Rectangle 44" width="104" height="104" rx="30" fill="#222228"/>
<g id="Group 143">
<g id="Group">
<g id="Group_2">
<path id="Vector" d="M69.8772 65.4848C67.8378 68.3428 65.07 70.7879 61.9695 72.4206C58.7647 74.108 55.1445 75 51.5 75C39.0935 75 29 64.914 29 52.5C29 48.8628 29.889 45.2274 31.5709 42.0303C33.1968 38.9398 35.5627 36.2273 38.4126 34.1863C39.2019 33.6209 40.3 33.8027 40.8651 34.5919C41.4304 35.3811 41.2488 36.4793 40.4595 37.0445C35.4854 40.6069 32.5156 46.3991 32.5156 52.4999C32.5156 62.9754 41.0319 71.4843 51.5 71.4843C57.622 71.4843 63.4442 68.4469 67.0057 63.4563C67.5659 62.6633 68.6627 62.4748 69.4556 63.0347C70.2485 63.595 70.4373 64.6918 69.8772 65.4848ZM74 52.5C74 52.9266 73.9877 53.3587 73.9635 53.7837C73.8733 55.3677 73.085 56.8116 71.8007 57.745C70.8874 58.4088 69.8059 58.7546 68.7051 58.7546C68.2559 58.7546 67.8034 58.697 67.3578 58.5799L50.9896 54.2943C50.8889 54.2694 50.4836 54.1452 50.1804 53.842C49.8772 53.5388 49.7347 53.1236 49.7096 53.0258L45.2783 36.6955C44.8621 35.1662 45.1512 33.5477 46.0719 32.2565C46.9971 30.9591 48.4415 30.1544 50.0347 30.0487C50.521 30.0164 51.014 30 51.5 30C59.0654 30 64.5907 33.7708 67.4099 36.5901C71.6596 40.8398 74 46.49 74 52.5ZM57.4815 49.0613L69.2496 45.7629C68.5129 43.8282 67.4679 42.0445 66.1758 40.471L57.4815 49.0613ZM54.8107 46.7577L63.7047 37.9702C62.0457 36.5746 60.1455 35.4565 58.0762 34.6899L54.8107 46.7577ZM51.4097 45.8669L54.6799 33.7819C53.6454 33.6067 52.5836 33.5156 51.5 33.5156C51.0914 33.5156 50.6767 33.5294 50.2677 33.5566C49.7308 33.5922 49.2448 33.8624 48.9344 34.2977C48.7547 34.5498 48.4813 35.0768 48.6709 35.7737L51.4097 45.8669ZM70.4844 52.5C70.4844 51.3576 70.383 50.2383 70.1886 49.1509L58.1315 52.5302L68.2499 55.1795C68.7643 55.3146 69.3047 55.213 69.7339 54.9012C70.1613 54.5906 70.4236 54.1105 70.4535 53.584C70.474 53.225 70.4844 52.8603 70.4844 52.5Z" fill="white"/>
<path id="Vector_2" d="M69.8772 65.4848C67.8378 68.3428 65.07 70.7879 61.9695 72.4206C58.7647 74.108 55.1445 75 51.5 75C39.0935 75 29 64.914 29 52.5C29 48.8628 29.889 45.2274 31.5709 42.0303C33.1968 38.9398 35.5627 36.2273 38.4126 34.1863C39.2019 33.6209 40.3 33.8027 40.8651 34.5919C41.4304 35.3811 41.2488 36.4793 40.4595 37.0445C35.4854 40.6069 32.5156 46.3991 32.5156 52.4999C32.5156 62.9754 41.0319 71.4843 51.5 71.4843C57.622 71.4843 63.4442 68.4469 67.0057 63.4563C67.5659 62.6633 68.6627 62.4748 69.4556 63.0347C70.2485 63.595 70.4373 64.6918 69.8772 65.4848ZM74 52.5C74 52.9266 73.9877 53.3587 73.9635 53.7837C73.8733 55.3677 73.085 56.8116 71.8007 57.745C70.8874 58.4088 69.8059 58.7546 68.7051 58.7546C68.2559 58.7546 67.8034 58.697 67.3578 58.5799L50.9896 54.2943C50.8889 54.2694 50.4836 54.1452 50.1804 53.842C49.8772 53.5388 49.7347 53.1236 49.7096 53.0258L45.2783 36.6955C44.8621 35.1662 45.1512 33.5477 46.0719 32.2565C46.9971 30.9591 48.4415 30.1544 50.0347 30.0487C50.521 30.0164 51.014 30 51.5 30C59.0654 30 64.5907 33.7708 67.4099 36.5901C71.6596 40.8398 74 46.49 74 52.5ZM57.4815 49.0613L69.2496 45.7629C68.5129 43.8282 67.4679 42.0445 66.1758 40.471L57.4815 49.0613ZM54.8107 46.7577L63.7047 37.9702C62.0457 36.5746 60.1455 35.4565 58.0762 34.6899L54.8107 46.7577ZM51.4097 45.8669L54.6799 33.7819C53.6454 33.6067 52.5836 33.5156 51.5 33.5156C51.0914 33.5156 50.6767 33.5294 50.2677 33.5566C49.7308 33.5922 49.2448 33.8624 48.9344 34.2977C48.7547 34.5498 48.4813 35.0768 48.6709 35.7737L51.4097 45.8669ZM70.4844 52.5C70.4844 51.3576 70.383 50.2383 70.1886 49.1509L58.1315 52.5302L68.2499 55.1795C68.7643 55.3146 69.3047 55.213 69.7339 54.9012C70.1613 54.5906 70.4236 54.1105 70.4535 53.584C70.474 53.225 70.4844 52.8603 70.4844 52.5Z" fill="white"/>
</g>
</g>
</g>
</g>
</svg>
