<svg width="104" height="104" viewBox="0 0 104 104" fill="none" xmlns="http://www.w3.org/2000/svg">
<g id="Group 175">
<rect id="Rectangle 46" width="104" height="104" rx="30" fill="#222228"/>
<g id="Group 144">
<g id="Group">
<path id="Vector" d="M66.386 76H49.5439C43.7397 76 39.0176 71.173 39.0176 65.2398V51.7894C39.0176 45.8562 43.7397 41.0292 49.5439 41.0292H66.386C72.1902 41.0292 76.9123 45.8562 76.9123 51.7894V65.2397C76.9123 71.173 72.1902 76 66.386 76ZM49.5439 44.6159C45.6744 44.6159 42.5264 47.8339 42.5264 51.7894V65.2397C42.5264 69.1952 45.6744 72.4132 49.5439 72.4132H66.386C70.2555 72.4132 73.4035 69.1952 73.4035 65.2397V51.7894C73.4035 47.8339 70.2555 44.6159 66.386 44.6159H49.5439ZM62.7963 54.3002C64.0074 54.3002 64.9892 53.2965 64.9892 52.0585C64.9892 50.8204 64.0074 49.8168 62.7963 49.8168C61.5851 49.8168 60.6033 50.8204 60.6033 52.0585C60.6032 53.2965 61.5851 54.3002 62.7963 54.3002ZM35.5088 58.779V40.7602C35.5088 36.8047 38.6568 33.5867 42.5263 33.5867H59.3684C61.6656 33.5867 63.8216 34.7404 65.1354 36.6726C65.6883 37.4859 66.7817 37.6869 67.5772 37.1217C68.3728 36.5565 68.5695 35.4388 68.0165 34.6256C66.0474 31.7292 62.8144 30 59.3684 30H42.5264C36.7221 30 32 34.827 32 40.7602V58.779C32 59.7695 32.7855 60.5724 33.7544 60.5724C34.7234 60.5724 35.5088 59.7695 35.5088 58.779ZM49.0665 65.042L53.3839 60.4093C54.3366 59.5716 55.7288 59.5365 56.7217 60.3316L59.389 62.5617C59.3964 62.5679 59.4039 62.5741 59.4115 62.5802C60.6776 63.6037 62.0601 64.1202 63.4058 64.0758C64.4465 64.0409 66.0038 63.6448 67.5129 61.9551C67.5263 61.9403 67.5393 61.9251 67.5521 61.9097L70.096 58.8609C70.7247 58.1074 70.6368 56.9755 69.8996 56.3327C69.1624 55.6899 68.0551 55.7798 67.4263 56.5334L64.903 59.5574C63.8493 60.7251 62.8591 60.79 61.5983 59.7754L58.9304 57.5448C58.9229 57.5387 58.9155 57.5325 58.9079 57.5264C56.5535 55.623 53.2247 55.7308 50.9929 57.7827C50.9594 57.8136 50.927 57.8456 50.8959 57.8791L46.5258 62.5682C45.8575 63.2853 45.8845 64.4205 46.586 65.1036C46.9256 65.4343 47.3611 65.5986 47.7958 65.5986C48.2592 65.5984 48.7217 65.412 49.0665 65.042Z" fill="white"/>
</g>
</g>
</g>
</svg>
