<svg width="104" height="104" viewBox="0 0 104 104" fill="none" xmlns="http://www.w3.org/2000/svg">
<g id="Group 176">
<rect id="Rectangle 47" width="104" height="104" rx="30" fill="#222228"/>
<g id="Group 145">
<g id="Group 104">
<g id="Group">
<path id="Vector" d="M46.8008 64.1289C37.5368 64.1289 30 56.2495 30 46.5645C30 36.8794 37.5368 29 46.8008 29C56.0648 29 63.6016 36.8794 63.6016 46.5645C63.6016 56.2495 56.0648 64.1289 46.8008 64.1289ZM46.8008 32.5937C39.4323 32.5937 33.4375 38.8609 33.4375 46.5645C33.4375 54.268 39.4322 60.5352 46.8008 60.5352C54.1694 60.5352 60.1641 54.268 60.1641 46.5645C60.1641 38.8609 54.1693 32.5937 46.8008 32.5937ZM74 64.2188V53.9766C74 50.3421 72.2656 46.9759 69.3605 44.9721C68.5684 44.4257 67.5021 44.6541 66.9794 45.4825C66.4566 46.3109 66.6753 47.4254 67.4676 47.9719C69.4055 49.3086 70.5625 51.5532 70.5625 53.9767V64.2189C70.5625 68.1821 67.4784 71.4063 63.6875 71.4063H53.8906C51.6394 71.4063 49.5271 70.2505 48.2402 68.3146C47.6985 67.4996 46.6273 67.2982 45.848 67.8644C45.0684 68.4307 44.8758 69.5505 45.4173 70.3653C47.3465 73.2675 50.5141 75.0001 53.8907 75.0001H63.6876C69.3738 75 74 70.1635 74 64.2188Z" fill="white"/>
</g>
</g>
</g>
</g>
</svg>
