<svg width="104" height="104" viewBox="0 0 104 104" fill="none" xmlns="http://www.w3.org/2000/svg">
<g id="Group 177">
<rect id="Rectangle 48" width="104" height="104" rx="30" fill="#222228"/>
<g id="Group 146">
<g id="Group">
<path id="Vector" d="M64.4531 75H53.5547C47.7392 75 43.0079 70.1635 43.0079 64.2188V61.7032H40.5469C34.7313 61.7031 30 56.8666 30 50.9219V39.7812C30 33.8365 34.7313 29 40.5469 29H51.4453C57.2608 29 61.9922 33.8365 61.9922 39.7812V42.2968H64.4531C70.2686 42.2968 74.9999 47.1333 74.9999 53.0781V64.2187C75 70.1635 70.2687 75 64.4531 75ZM40.5469 32.5937C36.6698 32.5937 33.5156 35.818 33.5156 39.7812V50.9219C33.5156 54.8851 36.6698 58.1093 40.5469 58.1093H44.7656C45.7365 58.1093 46.5235 58.9138 46.5235 59.9063V64.2188C46.5235 68.182 49.6777 71.4063 53.5547 71.4063H64.4531C68.3302 71.4063 71.4844 68.182 71.4844 64.2188V53.0781C71.4844 49.1149 68.3302 45.8907 64.4531 45.8907H60.2344C59.2635 45.8907 58.4765 45.0862 58.4765 44.0937V39.7812C58.4765 35.818 55.3223 32.5937 51.4453 32.5937H40.5469ZM46.5235 53.0781C46.5235 49.1149 49.6777 45.8907 53.5547 45.8907C54.5256 45.8907 55.3126 45.0862 55.3126 44.0937C55.3126 43.1013 54.5256 42.2968 53.5547 42.2968C47.7392 42.2968 43.0079 47.1333 43.0079 53.0781C43.0079 54.0705 43.7949 54.875 44.7657 54.875C45.7365 54.875 46.5235 54.0706 46.5235 53.0781ZM61.9922 50.9219C61.9922 49.9294 61.2051 49.1249 60.2343 49.1249C59.2635 49.1249 58.4764 49.9294 58.4764 50.9219C58.4764 54.8851 55.3223 58.1093 51.4452 58.1093C50.4744 58.1093 49.6874 58.9138 49.6874 59.9063C49.6874 60.8987 50.4744 61.7032 51.4452 61.7032C57.2608 61.7031 61.9922 56.8666 61.9922 50.9219Z" fill="white"/>
</g>
</g>
</g>
</svg>
