<svg width="104" height="104" viewBox="0 0 104 104" fill="none" xmlns="http://www.w3.org/2000/svg">
<g id="Group 178">
<rect id="Rectangle 49" width="104" height="104" rx="30" fill="#222228"/>
<g id="Group 147">
<g id="Group">
<path id="Vector" d="M64.3329 55.6182C62.5915 53.7976 60.3947 52.5688 57.9799 52.0641L53.1103 51.0465C52.547 50.9286 51.9645 51.1131 51.5581 51.538C51.1518 51.9629 50.9754 52.5718 51.088 53.1609L52.0613 58.2518C52.544 60.7764 53.7195 63.073 55.4608 64.8936L63.2905 73.0791C64.4754 74.3179 66.0508 75.0002 67.7265 75.0002C69.4022 75.0002 70.9775 74.3179 72.1624 73.0791C73.3473 71.8403 73.9999 70.1933 73.9999 68.4416C73.9999 66.6897 73.3474 65.0427 72.1624 63.804L64.3329 55.6182ZM69.7318 70.5379C69.1963 71.0978 68.484 71.4063 67.7266 71.4063C66.9691 71.4063 66.2568 71.0978 65.7213 70.5378L57.8916 62.3523C56.6319 61.0352 55.7814 59.3738 55.4322 57.5474L54.9641 55.0989L57.3061 55.5883C59.0532 55.9534 60.6424 56.8423 61.9021 58.1595L69.7318 66.3451C70.2674 66.905 70.5624 67.6496 70.5624 68.4415C70.5624 69.2334 70.2675 69.9779 69.7318 70.5379ZM45.211 32.5937H40.0169C39.3073 30.5023 37.3969 29 35.1563 29C32.3131 29 30 31.4182 30 34.3907C30 36.7332 31.437 38.7304 33.4375 39.4723V44.8126C33.4375 45.805 34.207 46.6095 35.1563 46.6095C36.1056 46.6095 36.8751 45.805 36.8751 44.8126V39.4723C38.3375 38.9299 39.4982 37.7166 40.0169 36.1876H45.211C46.1602 36.1876 46.9298 35.3831 46.9298 34.3907C46.9298 33.3982 46.1602 32.5937 45.211 32.5937ZM35.1563 36.1875C34.2086 36.1875 33.4375 35.3814 33.4375 34.3906C33.4375 33.3997 34.2085 32.5937 35.1563 32.5937C36.1041 32.5937 36.8751 33.3997 36.8751 34.3906C36.8751 35.3814 36.104 36.1875 35.1563 36.1875ZM58.7031 36.1875H63.9831C64.5019 37.7164 65.6624 38.9299 67.125 39.4722V44.8125C67.125 45.8049 67.8945 46.6094 68.8438 46.6094C69.7931 46.6094 70.5626 45.8049 70.5626 44.8125V39.4722C72.5631 38.7304 74.0001 36.7331 74.0001 34.3906C74 31.4182 71.6869 29 68.8437 29C66.6031 29 64.6927 30.5023 63.9831 32.5937H58.7031C57.7538 32.5937 56.9843 33.3982 56.9843 34.3907C56.9843 35.3831 57.7539 36.1875 58.7031 36.1875ZM68.8437 32.5937C69.7914 32.5937 70.5625 33.3998 70.5625 34.3907C70.5625 35.3815 69.7915 36.1876 68.8437 36.1876C67.896 36.1876 67.1249 35.3815 67.1249 34.3907C67.1249 33.3998 67.896 32.5937 68.8437 32.5937ZM45.211 67.8125H40.0169C39.4981 66.2836 38.3375 65.0701 36.875 64.5278V59.0977C36.875 58.1053 36.1055 57.3008 35.1562 57.3008C34.2069 57.3008 33.4374 58.1053 33.4374 59.0977V64.5278C31.437 65.2696 30 67.2668 30 69.6093C30 72.5818 32.3131 75 35.1563 75C37.3969 75 39.3073 73.4977 40.0169 71.4063H45.211C46.1602 71.4063 46.9298 70.6018 46.9298 69.6093C46.9298 68.6169 46.1602 67.8125 45.211 67.8125ZM35.1563 71.4063C34.2086 71.4063 33.4375 70.6002 33.4375 69.6093C33.4375 68.6185 34.2085 67.8124 35.1563 67.8124C36.1041 67.8124 36.8751 68.6185 36.8751 69.6093C36.8751 70.6002 36.104 71.4063 35.1563 71.4063ZM54.0625 34.3907C54.0625 35.6311 53.1006 36.6367 51.914 36.6367C50.7275 36.6367 49.7656 35.6311 49.7656 34.3907C49.7656 33.1502 50.7275 32.1446 51.914 32.1446C53.1006 32.1445 54.0625 33.1502 54.0625 34.3907ZM51.914 67.3633C50.7275 67.3633 49.7656 68.3689 49.7656 69.6093C49.7656 70.8498 50.7275 71.8554 51.914 71.8554C53.1006 71.8554 54.0625 70.8498 54.0625 69.6093C54.0625 68.3689 53.1006 67.3633 51.914 67.3633ZM68.8437 49.9336C67.6572 49.9336 66.6953 50.9392 66.6953 52.1796C66.6953 53.4201 67.6572 54.4257 68.8437 54.4257C70.0303 54.4257 70.9921 53.4201 70.9921 52.1796C70.9921 50.9392 70.0303 49.9336 68.8437 49.9336ZM35.1563 49.9336C33.9697 49.9336 33.0079 50.9392 33.0079 52.1796C33.0079 53.4201 33.9697 54.4257 35.1563 54.4257C36.3428 54.4257 37.3047 53.4201 37.3047 52.1796C37.3047 50.9392 36.3428 49.9336 35.1563 49.9336Z" fill="white"/>
</g>
</g>
</g>
</svg>
