<svg width="104" height="104" viewBox="0 0 104 104" fill="none" xmlns="http://www.w3.org/2000/svg">
<g id="Group 186">
<rect id="Rectangle 50" width="104" height="104" rx="30" fill="#222228"/>
<g id="Group 148">
<path id="Vector" d="M63.6875 66.5079H40.3107C34.6254 66.5079 30 61.7774 30 55.9628V41.5469C30 35.7313 34.6262 31 40.3125 31H63.6875C69.3738 31 74 35.7313 74 41.5469V55.9609C74 61.7765 69.3738 66.5079 63.6875 66.5079ZM40.3125 34.5156C36.5216 34.5156 33.4375 37.6698 33.4375 41.5469V55.9628C33.4375 59.8387 36.5208 62.9921 40.3107 62.9921H63.6874C67.4783 62.9921 70.5624 59.838 70.5624 55.9609V41.5469C70.5624 37.6698 67.4783 34.5156 63.6874 34.5156H40.3125ZM61.9687 71.7812C61.9687 70.8104 61.1992 70.0234 60.2499 70.0234H43.75C42.8007 70.0234 42.0312 70.8104 42.0312 71.7812C42.0312 72.7521 42.8007 73.5391 43.75 73.5391H60.25C61.1993 73.5391 61.9687 72.7521 61.9687 71.7812ZM60.1641 54.5987V43.4365C61.1447 43.2329 61.8828 42.3463 61.8828 41.2832C61.8828 40.0697 60.921 39.0859 59.7344 39.0859C58.695 39.0859 57.8281 39.8408 57.629 40.8438H46.8007C46.6017 39.8408 45.7347 39.0859 44.6953 39.0859C43.5087 39.0859 42.5469 40.0697 42.5469 41.2832C42.5469 42.3463 43.285 43.2329 44.2657 43.4365V54.5987C43.285 54.8023 42.5469 55.6889 42.5469 56.752C42.5469 57.9655 43.5087 58.9492 44.6953 58.9492C45.7347 58.9492 46.6017 58.1943 46.8007 57.1914H57.629C57.8281 58.1943 58.695 58.9492 59.7344 58.9492C60.921 58.9492 61.8828 57.9655 61.8828 56.752C61.8828 55.6889 61.1447 54.8023 60.1641 54.5987ZM56.7266 53.6758H47.7032V44.3594H56.7266V53.6758Z" fill="white"/>
</g>
</g>
</svg>
