<svg width="104" height="104" viewBox="0 0 104 104" fill="none" xmlns="http://www.w3.org/2000/svg">
<g id="Group 185">
<rect id="Rectangle 51" width="104" height="104" rx="30" fill="#222228"/>
<g id="Group 149">
<path id="Vector" d="M60.3125 74H43.7812C37.8365 74 33 69.1635 33 63.2188V38.7812C33 32.8365 37.8365 28 43.7812 28H60.3125C66.2573 28 71.0937 32.8365 71.0937 38.7812V63.2188C71.0937 69.1635 66.2573 74 60.3125 74ZM43.7812 31.5937C39.818 31.5937 36.5937 34.818 36.5937 38.7812V63.2188C36.5937 67.182 39.818 70.4063 43.7812 70.4063H60.3125C64.2757 70.4063 67.5 67.182 67.5 63.2188V38.7812C67.5 34.818 64.2757 31.5937 60.3125 31.5937H43.7812ZM63.8164 44.5313C63.8164 43.5389 63.0119 42.7344 62.0195 42.7344H58.9648C57.4785 42.7344 56.2694 41.5252 56.2694 40.039V36.9843C56.2694 35.9919 55.4649 35.1874 54.4725 35.1874C53.4801 35.1874 52.6756 35.9919 52.6756 36.9843V40.039C52.6756 43.5068 55.4969 46.3281 58.9647 46.3281H62.0194C63.012 46.3281 63.8164 45.5237 63.8164 44.5313ZM59.8689 60.0396L58.8496 59.4464C59.0346 58.8188 59.1356 58.1555 59.1356 57.4688C59.1356 56.783 59.0349 56.1207 58.8504 55.494L59.8725 54.8958C60.7289 54.3946 61.0169 53.2939 60.5156 52.4374C60.0144 51.581 58.9137 51.2931 58.0572 51.7943L56.9831 52.423C56.1381 51.6096 55.0911 51.0055 53.9247 50.6958V49.383C53.9247 48.3906 53.1202 47.5861 52.1278 47.5861C51.1354 47.5861 50.3309 48.3906 50.3309 49.383V50.6957C49.1362 51.0129 48.0661 51.6383 47.2108 52.4816L46.0365 51.7942C45.1801 51.2929 44.0794 51.5808 43.5781 52.4374C43.0769 53.2938 43.3648 54.3945 44.2213 54.8957L45.382 55.5751C45.2126 56.178 45.1199 56.8127 45.1199 57.4689C45.1199 58.1263 45.2129 58.762 45.3829 59.3658L44.2249 60.0398C43.3672 60.539 43.0767 61.6391 43.5758 62.4967C43.9096 63.0701 44.5116 63.3899 45.1305 63.3899C45.4374 63.3899 45.7484 63.3112 46.0327 63.1457L47.2132 62.4586C48.0681 63.3006 49.1372 63.9251 50.3308 64.2421V65.5548C50.3308 66.5472 51.1353 67.3517 52.1277 67.3517C53.1201 67.3517 53.9246 66.5472 53.9246 65.5548V64.2421C55.09 63.9327 56.1363 63.3292 56.9808 62.5171L58.0608 63.1457C58.3452 63.3112 58.6562 63.3899 58.9631 63.3899C59.5819 63.3899 60.184 63.07 60.5178 62.4967C61.0171 61.6388 60.7264 60.5389 59.8689 60.0396ZM52.1277 60.8828C50.2452 60.8828 48.7136 59.3513 48.7136 57.4687C48.7136 55.5862 50.2451 54.0546 52.1277 54.0546C54.0102 54.0546 55.5418 55.5862 55.5418 57.4687C55.5418 59.3512 54.0103 60.8828 52.1277 60.8828Z" fill="white"/>
</g>
</g>
</svg>
