<svg width="104" height="104" viewBox="0 0 104 104" fill="none" xmlns="http://www.w3.org/2000/svg">
<g id="Group 184">
<rect id="Rectangle 52" width="104" height="104" rx="30" fill="#222228"/>
<g id="Group 150">
<g id="Group">
<path id="Vector" d="M66.9925 40.745C66.9925 37.6056 65.7594 34.755 63.5204 32.7182C61.6493 31.0161 59.2026 30 56.9755 30C56.0049 30 55.2181 30.8043 55.2181 31.7964C55.2181 32.7886 56.0049 33.5929 56.9755 33.5929C58.3237 33.5929 59.9756 34.3031 61.1838 35.4023C62.2304 36.3543 63.4777 38.0538 63.4777 40.7452C63.4777 43.1033 61.5585 45.3914 57.7734 47.5459C54.3282 49.507 50.3116 50.7981 47.9118 51.5696C47.3746 51.7423 46.9106 51.8914 46.562 52.0142C44.8442 52.6188 41.1929 53.9041 38.0072 56.1166C36.155 57.403 34.6862 58.8417 33.6415 60.3926C32.3331 62.3353 31.6696 64.4697 31.6696 66.7366C31.6696 69.0813 32.4745 71.0519 34.062 72.5932C37.2737 75.7115 42.8338 76.0001 44.7801 76.0001C45.1709 76.0001 45.416 75.9885 45.4672 75.9858C46.4356 75.9349 47.1792 75.0919 47.1308 74.1019C47.0823 73.1121 46.2592 72.3479 45.2889 72.3975C43.6145 72.4811 38.7643 72.2099 36.4777 69.9836C35.6075 69.1359 35.1843 68.0738 35.1843 66.7365C35.1843 59.8187 44.6285 56.4945 47.7067 55.411C48.0105 55.3041 48.4534 55.1617 48.9662 54.9969C54.3604 53.2628 66.9925 49.202 66.9925 40.745Z" fill="white"/>
<path id="Vector_2" d="M39.7533 41.2276C44.006 41.2276 46.7116 39.0525 49.0985 37.1337C49.7732 36.5913 50.4103 36.0792 51.0819 35.6062C51.8813 35.0435 52.0829 33.9249 51.5324 33.1079C50.9817 32.2907 49.8875 32.0848 49.0883 32.6474C48.325 33.1848 47.6138 33.7566 46.9259 34.3096C44.7065 36.0939 42.7896 37.6348 39.7533 37.6348C35.6575 37.6348 33.5146 34.6978 33.5146 31.7965C33.5147 30.8043 32.7279 30 31.7573 30C30.7867 30 30 30.8043 30 31.7964C30 36.3683 33.4183 41.2276 39.7533 41.2276Z" fill="white"/>
<path id="Vector_3" d="M73.1098 53.0282C73.1097 53.0282 73.1097 53.0282 73.1098 53.0282C71.8981 51.7897 70.2874 51.1077 68.5741 51.1077C66.8607 51.1077 65.25 51.7896 64.0384 53.0282L55.1542 62.1098C53.3737 63.9299 52.1719 66.226 51.6784 68.7499L50.6832 73.8395C50.568 74.4284 50.7484 75.0372 51.1638 75.4619C51.4967 75.8021 51.9451 75.988 52.4065 75.988C52.5211 75.988 52.6364 75.9766 52.7509 75.9531L57.7299 74.9358C60.1989 74.4313 62.445 73.2027 64.2256 71.3827L73.1097 62.301C74.3212 61.0626 74.9886 59.416 74.9886 57.6646C74.9886 55.9132 74.3213 54.2666 73.1098 53.0282ZM70.6244 59.7605L61.7402 68.8422C60.4522 70.1589 58.8273 71.0478 57.0411 71.4127L54.6464 71.9019L55.1251 69.4541C55.4821 67.6282 56.3515 65.9671 57.6397 64.6505L66.5239 55.5688C67.0715 55.009 67.7997 54.7006 68.5742 54.7006C69.3487 54.7006 70.077 55.009 70.6245 55.5689C71.1722 56.1286 71.4739 56.873 71.4739 57.6647C71.4739 58.4564 71.1722 59.2007 70.6244 59.7605Z" fill="white"/>
</g>
</g>
</g>
</svg>
