<svg width="104" height="104" viewBox="0 0 104 104" fill="none" xmlns="http://www.w3.org/2000/svg">
<g id="Group 183">
<rect id="Rectangle 53" width="104" height="104" rx="30" fill="#222228"/>
<g id="Group">
<path id="Vector" d="M42.4347 74.9971C41.1144 74.9971 39.7947 74.4716 38.7898 73.4211L34.337 68.7659C32.3909 66.7311 32.3132 63.4681 34.1602 61.3372C34.1727 61.3228 34.1853 61.3087 34.1982 61.2947L34.3468 61.134C31.5314 57.6173 30 53.2259 30 48.5879C30 43.3566 31.9486 38.4385 35.4868 34.7396C38.3283 31.7689 41.924 29.8636 45.8853 29.2299C49.7653 28.6091 53.6608 29.2513 57.1511 31.087C57.9991 31.533 58.3407 32.6131 57.914 33.4995C57.4875 34.386 56.4543 34.7433 55.6065 34.297C49.7027 31.1921 42.594 32.3912 37.9173 37.2805C35.0283 40.3009 33.4372 44.3164 33.4372 48.5879C33.4372 52.8593 35.0283 56.8748 37.9174 59.8951C38.5805 60.5885 38.5926 61.7129 37.9407 62.4178L36.692 63.768C36.0928 64.4777 36.1242 65.5523 36.7675 66.225L41.2203 70.8801C41.8906 71.5808 42.9809 71.5807 43.6508 70.8801L54.7239 59.2582C55.3937 58.5551 56.482 58.5528 57.1544 59.2532C57.8268 59.9535 57.829 61.0912 57.1591 61.7941L46.0837 73.4186C45.077 74.471 43.7555 74.997 42.4347 74.9971ZM42.8998 57.2272L56.9966 42.4896C57.6679 41.7878 57.6679 40.6502 56.9966 39.9485C52.4399 35.1849 45.0259 35.1849 40.4692 39.9485C35.9126 44.7122 35.9126 52.4635 40.4692 57.2272C40.8047 57.578 41.2447 57.7534 41.6845 57.7534C42.1243 57.7534 42.5642 57.5781 42.8998 57.2272ZM53.2235 41.3521L41.8118 53.2826C39.7371 49.9416 40.0999 45.4166 42.8998 42.4896C44.508 40.8082 46.6204 39.9676 48.7329 39.9676C50.2981 39.9675 51.8634 40.429 53.2235 41.3521ZM68.7968 74.22L71.7595 69.7079C71.764 69.7013 71.7683 69.6945 71.7725 69.6877C73.2275 67.4065 73.9965 64.7516 73.9965 62.0099V35.9208C73.9965 32.1065 71.0283 29.0034 67.3799 29.0034C63.7314 29.0034 60.7632 32.1065 60.7632 35.9208V62.01C60.7632 64.7517 61.5321 67.4066 62.9872 69.6878C62.9915 69.6945 62.9958 69.7012 63.0002 69.708L65.9629 74.2201C66.2834 74.7083 66.8134 75 67.3799 75C67.9463 74.9999 68.4762 74.7082 68.7968 74.22ZM64.2005 62.01V35.9208C64.2005 34.0879 65.6267 32.5968 67.3799 32.5968C69.1331 32.5968 70.5594 34.0879 70.5594 35.9208V62.01C70.5594 64.0357 69.9922 65.9978 68.919 67.6844L67.3799 70.0284L65.8409 67.6844C64.7676 65.9978 64.2005 64.0358 64.2005 62.01ZM70.3427 68.6911H70.3435H70.3427ZM42.9248 62.1256C41.7384 62.1256 40.7766 63.1311 40.7766 64.3715C40.7766 65.6119 41.7384 66.6174 42.9248 66.6174C44.1113 66.6174 45.0731 65.6119 45.0731 64.3715C45.0731 63.1312 44.1113 62.1256 42.9248 62.1256ZM47.9463 56.839C46.7598 56.839 45.798 57.8445 45.798 59.0849C45.798 60.3253 46.7598 61.3308 47.9463 61.3308C49.1328 61.3308 50.0946 60.3253 50.0946 59.0849C50.0946 57.8445 49.1328 56.839 47.9463 56.839ZM53.0889 51.5455C51.9025 51.5455 50.9407 52.551 50.9407 53.7914C50.9407 55.0318 51.9025 56.0373 53.0889 56.0373C54.2754 56.0373 55.2372 55.0318 55.2372 53.7914C55.2372 52.5511 54.2754 51.5455 53.0889 51.5455Z" fill="white"/>
</g>
</g>
</svg>
