<svg width="104" height="104" viewBox="0 0 104 104" fill="none" xmlns="http://www.w3.org/2000/svg">
<g id="Group 182">
<rect id="Rectangle 54" width="104" height="104" rx="30" fill="#222228"/>
<g id="Group 151">
<g id="Group">
<path id="Vector" d="M57.4219 76H47.7539C41.9384 76 37.2071 71.1635 37.2071 65.2188V60.3672C37.2071 56.404 40.3613 53.1797 44.2383 53.1797H60.9375C64.8146 53.1797 67.9688 56.404 67.9688 60.3672V65.2188C67.9688 71.1635 63.2374 76 57.4219 76ZM44.2383 56.7734C42.2998 56.7734 40.7227 58.3856 40.7227 60.3671V65.2187C40.7227 69.1819 43.8769 72.4062 47.7539 72.4062H57.4219C61.299 72.4062 64.4531 69.1819 64.4531 65.2187V60.3671C64.4531 58.3856 62.876 56.7734 60.9375 56.7734H44.2383ZM67.9688 40.7812C67.9688 34.8365 63.2374 30 57.4219 30H47.7539C41.9384 30 37.2071 34.8365 37.2071 40.7812C37.2071 41.7737 37.9941 42.5781 38.9649 42.5781C39.9358 42.5781 40.7228 41.7737 40.7228 40.7812C40.7228 36.818 43.877 33.5937 47.754 33.5937H57.422C61.299 33.5937 64.4532 36.818 64.4532 40.7812C64.4532 41.7737 65.2402 42.5781 66.2111 42.5781C67.1819 42.5781 67.9688 41.7737 67.9688 40.7812ZM75 63.1523V56.7734C75 50.8286 70.2687 45.9922 64.4531 45.9922H40.5469C34.7313 45.9922 30 50.8286 30 56.7734V63.1523C30 64.1448 30.787 64.9492 31.7579 64.9492C32.7287 64.9492 33.5157 64.1448 33.5157 63.1523V56.7734C33.5157 52.8102 36.6699 49.5859 40.5469 49.5859H64.4532C68.3303 49.5859 71.4845 52.8102 71.4845 56.7734V63.1523C71.4845 64.1448 72.2715 64.9492 73.2423 64.9492C74.2132 64.9492 75 64.1448 75 63.1523ZM56.6263 68.7243C57.669 68.6893 59.2293 68.2924 60.7414 66.5995C61.396 65.8666 61.3455 64.7301 60.6285 64.061C59.9116 63.3918 58.7997 63.4434 58.1452 64.1764C57.0824 65.3662 56.0863 65.438 54.8155 64.4156L52.1422 62.1806C52.1347 62.1744 52.1273 62.1682 52.1197 62.1621C49.7607 60.255 46.4254 60.363 44.1892 62.4189C43.4674 63.0825 43.4085 64.2186 44.0577 64.9565C44.707 65.6944 45.8184 65.7544 46.5402 65.0909C47.4954 64.2127 48.9186 64.1637 49.929 64.9729L52.6016 67.2074C52.6091 67.2136 52.6165 67.2198 52.6241 67.2259C53.8416 68.2102 55.1654 68.7271 56.4634 68.7271C56.5178 68.727 56.5722 68.726 56.6263 68.7243Z" fill="white"/>
</g>
</g>
</g>
</svg>
