<svg width="104" height="104" viewBox="0 0 104 104" fill="none" xmlns="http://www.w3.org/2000/svg">
<g id="Group 181">
<rect id="Rectangle 55" width="104" height="104" rx="30" fill="#222228"/>
<g id="Group 152">
<g id="Group">
<path id="Vector" d="M75 48.3692V68.6719C75 72.1612 72.1612 75 68.6719 75C67.0619 75 65.5277 74.3949 64.3519 73.296C63.6426 72.6332 63.6049 71.5208 64.2678 70.8115C64.9306 70.1022 66.0432 70.0646 66.7523 70.7274C67.2746 71.2155 67.9564 71.4843 68.672 71.4843C70.2228 71.4843 71.4845 70.2227 71.4845 68.6718C71.4845 67.121 70.2228 65.8593 68.672 65.8593H36.3281C32.8388 65.8593 30 63.0205 30 59.5312V31.7579C30 30.787 30.787 30 31.7579 30C32.7287 30 33.5157 30.787 33.5157 31.7579C33.5157 33.3087 34.7773 34.5703 36.3282 34.5703H52.5001C53.4709 34.5703 54.2579 35.3573 54.2579 36.3282C54.2579 37.299 53.4709 38.086 52.5001 38.086H36.3281C35.3184 38.086 34.3634 37.8483 33.5156 37.426V59.5313C33.5156 61.0822 34.7773 62.3438 36.3281 62.3438H68.6719C69.6819 62.3438 70.6365 62.5828 71.4844 63.0055V48.3692C71.4844 47.3983 72.2714 46.6113 73.2422 46.6113C74.2131 46.6113 75 47.3983 75 48.3692ZM54.204 48.7277L55.1994 43.7475C55.693 41.2777 56.8953 39.031 58.6763 37.2501L64.0471 31.8791C65.2589 30.6673 66.8702 30 68.584 30C70.2977 30 71.9089 30.6673 73.1207 31.8792C74.3325 33.0911 75 34.7022 75 36.416C75 38.1298 74.3326 39.741 73.1207 40.9528L67.7499 46.3237C65.9688 48.1046 63.7222 49.3068 61.2524 49.8005L56.2722 50.7959C56.1576 50.8188 56.0422 50.8301 55.9277 50.8301C55.4661 50.8301 55.0177 50.6481 54.6847 50.3152C54.2692 49.8997 54.0888 49.3039 54.204 48.7277ZM58.1681 46.8318L60.5634 46.353C62.35 45.9959 63.9754 45.1262 65.2638 43.8378L70.6347 38.4669C71.1825 37.9191 71.4843 37.1906 71.4843 36.4159C71.4843 35.6412 71.1825 34.9128 70.6348 34.3651C70.087 33.8173 69.3586 33.5155 68.5839 33.5155C67.8092 33.5155 67.0808 33.8173 66.5331 34.3651L61.1621 39.736C59.8737 41.0244 59.0039 42.6497 58.6469 44.4365L58.1681 46.8318ZM60.5859 56.8067C60.5859 55.8358 59.7989 55.0488 58.8281 55.0488H42.3047C41.3339 55.0488 40.5469 55.8358 40.5469 56.8067C40.5469 57.7775 41.3339 58.5645 42.3047 58.5645H58.8282C59.7989 58.5644 60.5859 57.7774 60.5859 56.8067ZM48.1933 51.9727H42.3046C41.3338 51.9727 40.5468 51.1857 40.5468 50.2148C40.5468 49.244 41.3338 48.457 42.3046 48.457H48.1933C49.1642 48.457 49.9512 49.244 49.9512 50.2148C49.9512 51.1857 49.1642 51.9727 48.1933 51.9727Z" fill="white"/>
</g>
</g>
</g>
</svg>
