<svg width="45" height="45" viewBox="0 0 45 45" fill="none" xmlns="http://www.w3.org/2000/svg">
<g id="013-palette" clip-path="url(#clip0_408_1952)">
<g id="Group">
<path id="Vector" d="M14.7552 44.984H10.5394C4.72798 44.984 0 40.2561 0 34.4446V10.5553C0 4.74384 4.72798 0.0158691 10.5394 0.0158691H14.7552C20.5666 0.0158691 25.2946 4.74384 25.2946 10.5553V34.4446C25.2946 40.2561 20.5666 44.984 14.7552 44.984ZM10.5394 3.529C6.66509 3.529 3.51313 6.68096 3.51313 10.5553V34.4446C3.51313 38.3189 6.66509 41.4709 10.5394 41.4709H14.7552C18.6295 41.4709 21.7814 38.3189 21.7814 34.4446V10.5553C21.7814 6.68096 18.6295 3.529 14.7552 3.529H10.5394ZM31.539 28.154L36.0933 20.6495C39.1178 15.6918 37.5483 9.19875 32.5951 6.1696L30.3567 4.76406C29.5351 4.24824 28.4509 4.49604 27.935 5.31762C27.4191 6.13919 27.667 7.22339 28.4886 7.7393L30.736 9.1504C30.7424 9.15436 30.7488 9.1584 30.7552 9.16236C34.0626 11.1802 35.1118 15.5124 33.092 18.8233L28.5357 26.3313C28.0324 27.1606 28.2968 28.241 29.1261 28.7443C29.411 28.9171 29.7252 28.9994 30.0357 28.9994C30.6292 28.9995 31.2085 28.6984 31.539 28.154ZM30.9598 38.3986L39.966 32.8407C42.9838 30.9916 44.8632 27.7739 44.9933 24.2331C45.0679 22.2046 44.5142 20.1642 43.3919 18.3326C42.8851 17.5055 41.8037 17.2457 40.9764 17.7526C40.1493 18.2595 39.8895 19.3408 40.3964 20.1681C41.1562 21.408 41.5318 22.7691 41.4827 24.1043C41.3958 26.4663 40.1427 28.6125 38.1259 29.8482L29.1148 35.409C28.2892 35.9185 28.033 37.0007 28.5425 37.8263C28.8746 38.3643 29.4499 38.6607 30.039 38.6607C30.3536 38.6607 30.6723 38.5761 30.9598 38.3986ZM14.9308 35.3229C14.9308 34.1102 13.9477 33.1272 12.7351 33.1272C11.5224 33.1272 10.5394 34.1102 10.5394 35.3229C10.5394 36.5355 11.5224 37.5186 12.7351 37.5186C13.9477 37.5186 14.9308 36.5355 14.9308 35.3229ZM16.0726 20.8312C14.86 20.8312 13.8769 19.8481 13.8769 18.6355C13.8769 17.4228 14.86 16.4398 16.0726 16.4398C17.2853 16.4398 18.2683 17.4228 18.2683 18.6355C18.2683 19.8481 17.2853 20.8312 16.0726 20.8312ZM11.4177 27.1549C11.4177 25.9422 10.4346 24.9592 9.22196 24.9592C8.00931 24.9592 7.02626 25.9422 7.02626 27.1549C7.02626 28.3675 8.00931 29.3506 9.22196 29.3506C10.4346 29.3506 11.4177 28.3675 11.4177 27.1549ZM11.4177 10.2918C11.4177 9.07914 10.4346 8.0961 9.22196 8.0961C8.00931 8.0961 7.02626 9.07914 7.02626 10.2918C7.02626 11.5044 8.00931 12.4875 9.22196 12.4875C10.4346 12.4875 11.4177 11.5044 11.4177 10.2918ZM11.4177 18.6355C11.4177 17.4228 10.4346 16.4398 9.22196 16.4398C8.00931 16.4398 7.02626 17.4228 7.02626 18.6355C7.02626 19.8481 8.00931 20.8312 9.22196 20.8312C10.4346 20.8312 11.4177 19.8481 11.4177 18.6355ZM18.2683 10.2039C18.2683 8.99129 17.2853 8.00825 16.0726 8.00825C14.86 8.00825 13.8769 8.99129 13.8769 10.2039C13.8769 11.4166 14.86 12.3996 16.0726 12.3996C17.2853 12.3997 18.2683 11.4166 18.2683 10.2039ZM18.2683 27.1549C18.2683 25.9422 17.2853 24.9592 16.0726 24.9592C14.86 24.9592 13.8769 25.9422 13.8769 27.1549C13.8769 28.3675 14.86 29.3506 16.0726 29.3506C17.2853 29.3506 18.2683 28.3675 18.2683 27.1549Z" fill="white"/>
</g>
</g>
<defs>
<clipPath id="clip0_408_1952">
<rect width="45" height="45" fill="white"/>
</clipPath>
</defs>
</svg>
