<svg width="104" height="104" viewBox="0 0 104 104" fill="none" xmlns="http://www.w3.org/2000/svg">
<rect width="104" height="104" rx="30" fill="#222228"/>
<path d="M63.6875 44.4531H59.2187V39.7812C59.2187 33.8365 54.5926 29 48.9063 29H40.3125C34.6262 29 30 33.8365 30 39.7812V48.7656C30 54.7104 34.6262 59.5469 40.3125 59.5469H44.7813V64.2188C44.7813 70.1635 49.4074 75 55.0937 75H63.6875C69.3738 75 74 70.1635 74 64.2188V55.2344C74 49.2896 69.3738 44.4531 63.6875 44.4531ZM55.0937 57.3851C55.8722 56.7729 56.5654 56.0482 57.151 55.2344H63.3438C63.5333 55.2344 63.6875 55.3956 63.6875 55.5937V63.8594C63.6875 64.0576 63.5333 64.2188 63.3438 64.2188H55.4375C55.2479 64.2188 55.0937 64.0576 55.0937 63.8594V57.3851ZM40.3125 55.9531C36.5216 55.9531 33.4375 52.7288 33.4375 48.7656V39.7812C33.4375 35.818 36.5216 32.5937 40.3125 32.5937H48.9063C52.6972 32.5937 55.7813 35.818 55.7813 39.7812V48.7656C55.7813 52.7288 52.6972 55.9531 48.9063 55.9531H40.3125ZM70.5625 64.2188C70.5625 68.182 67.4784 71.4063 63.6875 71.4063H55.0937C51.3028 71.4063 48.2187 68.182 48.2187 64.2188V59.5469H48.9063C49.8583 59.5469 50.7804 59.4106 51.6562 59.1571V63.8594C51.6562 66.0392 53.3524 67.8125 55.4375 67.8125H63.3438C65.4288 67.8125 67.125 66.0392 67.125 63.8594V55.5937C67.125 53.4139 65.4288 51.6406 63.3438 51.6406H58.8459C59.0885 50.725 59.2187 49.7609 59.2187 48.7656V48.0469H63.6875C67.4784 48.0469 70.5625 51.2712 70.5625 55.2344V64.2188Z" fill="white"/>
</svg>
