<svg width="104" height="104" viewBox="0 0 104 104" fill="none" xmlns="http://www.w3.org/2000/svg">
<rect width="104" height="104" rx="30" fill="#222228"/>
<path d="M52.3438 67.5423C51.7773 67.5423 51.2473 67.2505 50.9267 66.7623L47.8078 62.0124C47.8035 62.0058 47.7992 61.9991 47.795 61.9923C46.2732 59.6066 45.469 56.8299 45.469 53.9624V36.1874C45.469 32.2242 48.553 29 52.3439 29C56.1347 29 59.2187 32.2242 59.2187 36.1874V53.9624C59.2187 56.8299 58.4144 59.6065 56.8927 61.9923C56.8884 61.999 56.8842 62.0057 56.8799 62.0124L53.761 66.7623C53.4401 67.2504 52.9101 67.5423 52.3438 67.5423ZM50.6483 59.9884L52.3438 62.5705L54.0391 59.9886C55.1788 58.1975 55.7812 56.1138 55.7812 53.9624V36.1874C55.7812 34.2058 54.2392 32.5937 52.3438 32.5937C50.4484 32.5937 48.9063 34.2058 48.9063 36.1874V53.9624C48.9063 56.1138 49.5087 58.1973 50.6483 59.9884ZM73.9996 73.2023C73.9996 72.2099 73.2301 71.4055 72.2809 71.4055H31.7192C30.7699 71.4055 30.0004 72.2099 30.0004 73.2023C30.0004 74.1947 30.7699 74.9991 31.7192 74.9991H72.2809C73.2301 74.9991 73.9996 74.1946 73.9996 73.2023ZM62.7059 62.793C62.2713 62.793 61.8365 62.6218 61.5019 62.2783C60.8245 61.5831 60.8145 60.4454 61.4795 59.7373L65.6255 55.3227C66.2906 54.6145 67.3788 54.6041 68.056 55.2994C68.7333 55.9947 68.7433 57.1323 68.0783 57.8404L63.9323 62.255C63.5959 62.6133 63.151 62.793 62.7059 62.793ZM65.5987 68.7693L72.6834 66.9847C73.6062 66.7523 74.1741 65.7817 73.9517 64.817C73.7293 63.8523 72.801 63.2583 71.8783 63.491L64.7936 65.2756C63.8708 65.508 63.3029 66.4785 63.5252 67.4433C63.7149 68.2666 64.4188 68.8197 65.1947 68.8197C65.328 68.8197 65.4634 68.8034 65.5987 68.7693ZM69.7029 51.2583C69.7029 52.4988 70.6647 53.5044 71.8512 53.5044C73.0378 53.5044 73.9996 52.4988 73.9996 51.2583C73.9996 50.0179 73.0378 49.0123 71.8512 49.0123C70.6647 49.0123 69.7029 50.0178 69.7029 51.2583ZM42.4981 62.2783C43.1755 61.5831 43.1855 60.4454 42.5205 59.7373L38.3745 55.3227C37.7094 54.6145 36.6213 54.6041 35.944 55.2994C35.2666 55.9947 35.2567 57.1323 35.9217 57.8404L40.0676 62.255C40.4041 62.6134 40.8489 62.793 41.2941 62.793C41.7287 62.793 42.1636 62.6216 42.4981 62.2783ZM40.4748 67.4433C40.6972 66.4785 40.1292 65.508 39.2064 65.2756L32.1217 63.491C31.1988 63.2584 30.2707 63.8522 30.0482 64.817C29.8258 65.7817 30.3938 66.7523 31.3166 66.9847L38.4013 68.7693C38.5366 68.8034 38.6719 68.8197 38.8053 68.8197C39.5811 68.8197 40.285 68.2666 40.4748 67.4433ZM32.1489 49.0123C30.9624 49.0123 30.0005 50.0179 30.0005 51.2583C30.0005 52.4988 30.9624 53.5044 32.1489 53.5044C33.3354 53.5044 34.2973 52.4988 34.2973 51.2583C34.2973 50.0178 33.3354 49.0123 32.1489 49.0123Z" fill="white"/>
</svg>
