<svg width="104" height="104" viewBox="0 0 104 104" fill="none" xmlns="http://www.w3.org/2000/svg">
<rect width="104" height="104" rx="30" fill="#222228"/>
<path d="M64.4531 67.9688H40.545C34.7306 67.9688 30 63.2382 30 57.4238V43.0079C30 37.1922 34.7313 32.4609 40.5469 32.4609H42.6562C43.627 32.4609 44.4141 33.2479 44.4141 34.2188C44.4141 35.1896 43.627 35.9766 42.6562 35.9766H40.5469C36.6698 35.9766 33.5156 39.1308 33.5156 43.0079V57.4238C33.5156 61.2997 36.669 64.4531 40.545 64.4531H64.4531C68.3301 64.4531 71.4843 61.299 71.4843 57.4219V43.0079C71.4843 39.1308 68.3301 35.9766 64.4531 35.9766H62.2558C61.285 35.9766 60.498 35.1896 60.498 34.2188C60.498 33.2479 61.285 32.4609 62.2558 32.4609H64.4531C70.2686 32.4609 74.9999 37.1922 74.9999 43.0078V57.4218C75 63.2374 70.2687 67.9688 64.4531 67.9688ZM62.6953 73.2422C62.6953 72.2713 61.9083 71.4843 60.9374 71.4843H44.0625C43.0916 71.4843 42.3046 72.2713 42.3046 73.2422C42.3046 74.213 43.0916 74.9999 44.0625 74.9999H60.9375C61.9084 75 62.6953 74.213 62.6953 73.2422ZM52.5 59.3702C49.1076 59.3702 46.3476 56.6102 46.3476 53.2178V41.3636C46.3476 38.9679 47.0503 36.6481 48.3794 34.6548C48.3837 34.6483 48.3881 34.6417 48.3926 34.6351L51.0507 30.7629C51.3786 30.2854 51.9207 30 52.5 30C53.0793 30 53.6214 30.2854 53.9493 30.763L56.6074 34.6352C56.6119 34.6417 56.6163 34.6482 56.6207 34.6549C57.9497 36.6481 58.6524 38.968 58.6524 41.3636V53.2178C58.6524 56.6102 55.8924 59.3702 52.5 59.3702ZM51.298 36.6149C50.3595 38.0264 49.8633 39.6682 49.8633 41.3637V53.2179C49.8633 54.6718 51.0462 55.8546 52.5001 55.8546C53.954 55.8546 55.1368 54.6718 55.1368 53.2179V41.3636C55.1368 39.6682 54.6407 38.0264 53.7022 36.6148L52.5002 34.8637L51.298 36.6149Z" fill="white"/>
</svg>
