<svg width="104" height="104" viewBox="0 0 104 104" fill="none" xmlns="http://www.w3.org/2000/svg">
<g id="Group 162">
<rect id="Rectangle 33" width="104" height="104" rx="30" fill="#222228"/>
<g id="Group 137">
<g id="Group">
<path id="Vector" d="M47.5781 49.8632V65.5574C47.5781 67.5437 47.0086 69.4669 45.9311 71.1195C45.9268 71.1261 45.9225 71.1326 45.9182 71.1391L43.8389 74.2369C43.5184 74.7145 42.9883 74.9999 42.4218 74.9999C41.8554 74.9999 41.3254 74.7145 41.0048 74.2369L38.9255 71.1391C38.9211 71.1326 38.9168 71.1262 38.9126 71.1195C37.835 69.4669 37.2656 67.5436 37.2656 65.5573V50.1268C37.2656 49.156 38.0351 48.369 38.9843 48.369C39.9336 48.369 40.7031 49.156 40.7031 50.1268V65.5573C40.7031 66.8433 41.0708 68.0888 41.7666 69.1597L42.4219 70.1361L43.0772 69.1598C43.7731 68.0888 44.1407 66.8434 44.1407 65.5574V49.8632C44.1407 48.8923 44.9102 48.1053 45.8595 48.1053C46.8086 48.1054 47.5781 48.8923 47.5781 49.8632ZM77.2539 37.164L74.225 35.0375C74.2186 35.033 74.2123 35.0286 74.2058 35.0242C72.5899 33.9222 70.7094 33.3398 68.7673 33.3398H53.6797C52.7304 33.3398 51.9609 34.1268 51.9609 35.0976C51.9609 36.0685 52.7304 36.8555 53.6797 36.8555H68.7674C70.0248 36.8555 71.2426 37.2315 72.2897 37.9432L73.2443 38.6133L72.2897 39.2835C71.2425 39.9952 70.0247 40.3712 68.7673 40.3712H53.336C52.3867 40.3712 51.6172 41.1582 51.6172 42.1291C51.6172 43.0999 52.3867 43.8869 53.336 43.8869H68.7673C70.7094 43.8869 72.59 43.3045 74.2058 42.2025C74.2122 42.1981 74.2186 42.1937 74.225 42.1892L77.2539 40.0627C77.721 39.7349 78.0001 39.1928 78.0001 38.6134C78.0001 38.0341 77.7209 37.4918 77.2539 37.164ZM49.125 38.3056C49.125 42.2553 45.983 45.4687 42.1211 45.4687C38.2592 45.4687 35.1172 42.2553 35.1172 38.3056C35.1172 36.9668 35.479 35.7134 36.1066 34.6403L34.5035 33.0007C33.8322 32.3142 33.8322 31.2012 34.5035 30.5148C35.1747 29.8285 36.263 29.8283 36.9341 30.5148L38.5372 32.1543C39.5865 31.5125 40.8122 31.1425 42.1211 31.1425C45.983 31.1425 49.125 34.3559 49.125 38.3056ZM45.6875 38.3056C45.6875 36.2944 44.0876 34.6582 42.1211 34.6582C40.1546 34.6582 38.5547 36.2944 38.5547 38.3056C38.5547 40.3168 40.1546 41.9531 42.1211 41.9531C44.0876 41.9531 45.6875 40.3168 45.6875 38.3056ZM70.0964 66.9167C75.1931 61.7042 78 54.7739 78 47.4022C78 46.4313 77.2305 45.6443 76.2812 45.6443C75.3319 45.6443 74.5624 46.4313 74.5624 47.4022C74.5624 60.681 63.9993 71.4842 51.0155 71.4842C50.0663 71.4842 49.2967 72.2712 49.2967 73.2421C49.2967 74.2129 50.0663 74.9999 51.0155 74.9999C58.2235 74.9999 64.9998 72.1292 70.0964 66.9167Z" fill="white"/>
</g>
</g>
</g>
</svg>
