<svg width="104" height="104" viewBox="0 0 104 104" fill="none" xmlns="http://www.w3.org/2000/svg">
<g id="Group 216">
<rect id="Rectangle 38" width="104" height="104" rx="30" fill="#222228"/>
<g id="_x34__stroke">
<g id="Spotify_1_">
<path id="Spotify" fill-rule="evenodd" clip-rule="evenodd" d="M52.5 29C40.125 29 30 39.134 30 51.52C30 63.906 40.125 74.04 52.5 74.04C64.875 74.04 75 63.906 75 51.52C75 39.134 64.9875 29 52.5 29ZM62.85 61.5414C62.4 62.217 61.6125 62.4422 60.9375 61.9918C55.65 58.7264 49.0125 58.0508 41.1375 59.8524C40.35 60.0776 39.675 59.5146 39.45 58.839C39.225 58.0508 39.7875 57.3752 40.4625 57.15C49.0125 55.2358 56.4375 56.024 62.2875 59.6272C63.075 59.965 63.1875 60.8658 62.85 61.5414ZM65.55 55.3484C64.9875 56.1366 63.975 56.4744 63.1875 55.9114C57.1125 52.1956 47.8875 51.0696 40.8 53.3216C39.9 53.5468 38.8875 53.0964 38.6625 52.1956C38.4375 51.2948 38.8875 50.2814 39.7875 50.0562C48 47.579 58.125 48.8176 65.1 53.0964C65.775 53.4342 66.1125 54.5602 65.55 55.3484ZM65.775 49.0428C58.575 44.764 46.5375 44.3136 39.675 46.453C38.55 46.7908 37.425 46.1152 37.0875 45.1018C36.75 43.9758 37.425 42.8498 38.4375 42.512C46.425 40.1474 59.5875 40.5978 67.9125 45.5522C68.925 46.1152 69.2625 47.4664 68.7 48.4798C68.1375 49.268 66.7875 49.6058 65.775 49.0428Z" fill="white"/>
</g>
</g>
</g>
</svg>
