<svg width="104" height="104" viewBox="0 0 104 104" fill="none" xmlns="http://www.w3.org/2000/svg">
<g id="Group 215">
<rect id="Rectangle 39" width="104" height="104" rx="30" fill="#222228"/>
<path id="Vector" d="M50.1201 27.1672C42.2172 28.0947 34.3422 34.8169 34.0172 44.4193C33.8129 50.2822 35.3962 54.6807 40.7035 55.9158C43.0065 51.6442 39.9606 50.7021 39.4869 47.6119C37.5414 34.9487 53.3796 26.3129 61.6679 35.1537C67.4023 41.2754 63.6273 60.1092 54.3779 58.1516C45.5186 56.2819 58.7148 41.2901 51.643 38.3464C45.8947 35.9543 42.8394 45.6641 45.565 50.4873C43.9677 58.7814 40.527 66.597 41.92 77C46.4379 73.5535 47.9609 66.9534 49.21 60.0701C51.4805 61.52 52.6924 63.0285 55.5898 63.2628C66.274 64.1317 72.2406 52.0494 70.7826 40.9044C69.4872 31.0238 60.1077 25.9956 50.1201 27.1672Z" fill="white"/>
</g>
</svg>
