<svg width="104" height="104" viewBox="0 0 104 104" fill="none" xmlns="http://www.w3.org/2000/svg">
<g id="Group 214">
<rect id="Rectangle 40" width="104" height="104" rx="30" fill="#222228"/>
<path id="Vector" fill-rule="evenodd" clip-rule="evenodd" d="M52.5 27C38.4113 27 27 38.2411 27 52.1197C27 63.2352 34.2994 72.6237 44.4356 75.952C45.7106 76.1718 46.1887 75.4182 46.1887 74.7588C46.1887 74.1622 46.1569 72.1841 46.1569 70.0803C39.75 71.2421 38.0925 68.5417 37.5825 67.1287C37.2956 66.4065 36.0525 64.1772 34.9688 63.5806C34.0763 63.1096 32.8012 61.9478 34.9369 61.9164C36.945 61.885 38.3794 63.7376 38.8575 64.4911C41.1525 68.2905 44.8181 67.2229 46.2844 66.5635C46.5075 64.9307 47.1769 63.8318 47.91 63.2038C42.2362 62.5758 36.3075 60.4092 36.3075 50.8009C36.3075 48.0691 37.2956 45.8084 38.9213 44.05C38.6663 43.422 37.7737 40.8472 39.1762 37.3933C39.1762 37.3933 41.3119 36.7339 46.1887 39.968C48.2288 39.4029 50.3963 39.1203 52.5638 39.1203C54.7313 39.1203 56.8988 39.4029 58.9388 39.968C63.8156 36.7025 65.9513 37.3933 65.9513 37.3933C67.3538 40.8472 66.4613 43.422 66.2062 44.05C67.8319 45.8084 68.82 48.0377 68.82 50.8009C68.82 60.4406 62.8594 62.5758 57.1856 63.2038C58.11 63.9888 58.9069 65.4959 58.9069 67.8509C58.9069 71.2107 58.875 73.911 58.875 74.7588C58.875 75.4182 59.3531 76.2032 60.6281 75.952C70.7006 72.6237 78 63.2038 78 52.1197C78 38.2411 66.5887 27 52.5 27Z" fill="white"/>
</g>
</svg>
