<svg width="104" height="104" viewBox="0 0 104 104" fill="none" xmlns="http://www.w3.org/2000/svg">
<g id="Group 207">
<rect id="Rectangle 27" width="104" height="104" rx="30" fill="#222228"/>
<g id="Group 15">
<path id="Vector" d="M45.2945 52.4462C45.2945 48.4982 48.4932 45.2969 52.44 45.2969C56.3869 45.2969 59.5873 48.4982 59.5873 52.4462C59.5873 56.3942 56.3869 59.5955 52.44 59.5955C48.4932 59.5955 45.2945 56.3942 45.2945 52.4462ZM41.4308 52.4462C41.4308 58.5284 46.3596 63.4586 52.44 63.4586C58.5204 63.4586 63.4492 58.5284 63.4492 52.4462C63.4492 46.3641 58.5204 41.4338 52.44 41.4338C46.3596 41.4338 41.4308 46.3641 41.4308 52.4462ZM61.3123 40.9972C61.3121 41.5062 61.4628 42.0038 61.7453 42.4272C62.0278 42.8505 62.4295 43.1805 62.8996 43.3755C63.3696 43.5705 63.8869 43.6216 64.386 43.5225C64.8851 43.4234 65.3436 43.1785 65.7036 42.8187C66.0636 42.459 66.3088 42.0005 66.4082 41.5013C66.5077 41.0021 66.457 40.4847 66.2624 40.0143C66.0679 39.544 65.7383 39.1419 65.3153 38.859C64.8923 38.576 64.395 38.4249 63.8861 38.4247H63.8851C63.203 38.425 62.5489 38.6961 62.0665 39.1784C61.5841 39.6608 61.3129 40.3149 61.3123 40.9972ZM43.7783 69.9029C41.6879 69.8077 40.5518 69.4594 39.7968 69.1652C38.7958 68.7754 38.0816 68.3111 37.3306 67.561C36.5797 66.8109 36.1149 66.0972 35.7269 65.0959C35.4326 64.341 35.0844 63.2042 34.9894 61.1133C34.8854 58.8526 34.8647 58.1736 34.8647 52.4464C34.8647 46.7192 34.8872 46.042 34.9894 43.7795C35.0846 41.6886 35.4353 40.554 35.7269 39.7969C36.1166 38.7956 36.5808 38.0812 37.3306 37.3301C38.0805 36.5789 38.7941 36.114 39.7968 35.7259C40.5515 35.4315 41.6879 35.0832 43.7783 34.9881C46.0382 34.8842 46.7171 34.8634 52.44 34.8634C58.163 34.8634 58.8426 34.8859 61.1044 34.9881C63.1947 35.0834 64.329 35.4342 65.0859 35.7259C66.0869 36.114 66.8011 36.58 67.552 37.3301C68.3029 38.0802 68.766 38.7956 69.1557 39.7969C69.4501 40.5518 69.7982 41.6886 69.8933 43.7795C69.9972 46.042 70.018 46.7192 70.018 52.4464C70.018 58.1736 69.9972 58.8508 69.8933 61.1133C69.7981 63.2042 69.4482 64.3407 69.1557 65.0959C68.766 66.0972 68.3019 66.8116 67.552 67.561C66.8021 68.3104 66.0869 68.7754 65.0859 69.1652C64.3312 69.4596 63.1947 69.8079 61.1044 69.9029C58.8444 70.0069 58.1656 70.0277 52.44 70.0277C46.7145 70.0277 46.0375 70.0069 43.7783 69.9029ZM43.6007 31.1299C41.3183 31.2338 39.7587 31.5959 38.3966 32.126C36.9861 32.6735 35.7919 33.408 34.5987 34.5997C33.4054 35.7914 32.673 36.9878 32.1257 38.3988C31.5957 39.7621 31.2338 41.3213 31.1298 43.6044C31.0242 45.8911 31 46.6221 31 52.4462C31 58.2703 31.0242 59.0014 31.1298 61.2881C31.2338 63.5713 31.5957 65.1304 32.1257 66.4937C32.673 67.9038 33.4056 69.1015 34.5987 70.2928C35.7918 71.484 36.9861 72.2174 38.3966 72.7664C39.7613 73.2966 41.3183 73.6586 43.6007 73.7626C45.888 73.8666 46.6176 73.8925 52.44 73.8925C58.2625 73.8925 58.9933 73.8683 61.2793 73.7626C63.5619 73.6586 65.1205 73.2966 66.4834 72.7664C67.8932 72.2174 69.0881 71.4845 70.2814 70.2928C71.4747 69.101 72.2055 67.9038 72.7544 66.4937C73.2844 65.1304 73.648 63.5712 73.7502 61.2881C73.8542 58.9997 73.8784 58.2703 73.8784 52.4462C73.8784 46.6221 73.8542 45.8911 73.7502 43.6044C73.6463 41.3211 73.2844 39.7612 72.7544 38.3988C72.2055 36.9886 71.4728 35.7933 70.2814 34.5997C69.09 33.4061 67.8932 32.6735 66.4852 32.126C65.1205 31.5959 63.5618 31.2321 61.2811 31.1299C58.995 31.0259 58.2642 31 52.4418 31C46.6193 31 45.888 31.0242 43.6007 31.1299Z" fill="white"/>
</g>
</g>
</svg>
