<svg width="104" height="104" viewBox="0 0 104 104" fill="none" xmlns="http://www.w3.org/2000/svg">
<g id="Group 221">
<g id="Group 220">
<rect id="Rectangle 34" width="104" height="104" rx="30" fill="#222228"/>
</g>
<g id="Group 79">
<path id="Vector" d="M38.868 58.5878C38.868 61.308 36.6714 63.5066 33.9535 63.5066C31.2357 63.5066 29.0391 61.308 29.0391 58.5878C29.0391 55.8675 31.2357 53.6689 33.9535 53.6689H38.868V58.5878ZM41.3252 58.5878C41.3252 55.8675 43.5218 53.6689 46.2397 53.6689C48.9575 53.6689 51.1542 55.8675 51.1542 58.5878V70.8849C51.1542 73.6051 48.9575 75.8037 46.2397 75.8037C43.5218 75.8037 41.3252 73.6051 41.3252 70.8849V58.5878Z" fill="white"/>
<path id="Vector_2" d="M46.2379 38.8377C43.52 38.8377 41.3234 36.6391 41.3234 33.9188C41.3234 31.1986 43.52 29 46.2379 29C48.9557 29 51.1523 31.1986 51.1523 33.9188V38.8377H46.2379ZM46.2379 41.3344C48.9557 41.3344 51.1523 43.5329 51.1523 46.2532C51.1523 48.9735 48.9557 51.172 46.2379 51.172H33.9145C31.1966 51.172 29 48.9735 29 46.2532C29 43.5329 31.1966 41.3344 33.9145 41.3344H46.2379Z" fill="white"/>
<path id="Vector_3" d="M65.9345 46.2532C65.9345 43.5329 68.1311 41.3344 70.8489 41.3344C73.5668 41.3344 75.7634 43.5329 75.7634 46.2532C75.7634 48.9735 73.5668 51.172 70.8489 51.172H65.9345V46.2532ZM63.4773 46.2532C63.4773 48.9735 61.2806 51.172 58.5628 51.172C55.8449 51.172 53.6483 48.9735 53.6483 46.2532V33.9188C53.6483 31.1986 55.8449 29 58.5628 29C61.2806 29 63.4773 31.1986 63.4773 33.9188V46.2532Z" fill="white"/>
<path id="Vector_4" d="M58.5628 65.966C61.2806 65.966 63.4773 68.1646 63.4773 70.8849C63.4773 73.6051 61.2806 75.8037 58.5628 75.8037C55.8449 75.8037 53.6483 73.6051 53.6483 70.8849V65.966H58.5628ZM58.5628 63.5066C55.8449 63.5066 53.6483 61.308 53.6483 58.5878C53.6483 55.8675 55.8449 53.6689 58.5628 53.6689H70.8862C73.604 53.6689 75.8006 55.8675 75.8006 58.5878C75.8006 61.308 73.604 63.5066 70.8862 63.5066H58.5628Z" fill="white"/>
</g>
</g>
</svg>
