<svg width="726" height="400" viewBox="0 0 182 100" fill="none" xmlns="http://www.w3.org/2000/svg">
<g clip-path="url(#clip0_5063_16941)">
<rect width="181.333" height="100" transform="matrix(-1 0 0 -1 181.667 100)" fill="#001A72"/>
<path d="M16.3769 -49.1553V-9.74795L-6.45051 13.0795H-15.3412" stroke="#99A3C7" stroke-width="1.92231"/>
<circle cx="31.7555" cy="-2.05849" r="3.84462" stroke="#99A3C7" stroke-width="1.92231"/>
<circle cx="47.1339" cy="74.8343" r="3.84462" stroke="#99A3C7" stroke-width="1.92231"/>
<circle cx="108.648" cy="74.8343" r="3.84462" stroke="#99A3C7" stroke-width="1.92231"/>
<circle cx="108.648" cy="59.4557" r="3.84462" stroke="#99A3C7" stroke-width="1.92231"/>
<circle cx="93.2694" cy="44.0773" r="3.84462" stroke="#99A3C7" stroke-width="1.92231"/>
<circle cx="77.8907" cy="28.6986" r="3.84462" stroke="#99A3C7" stroke-width="1.92231"/>
<circle cx="139.405" cy="-2.05849" r="3.84462" stroke="#99A3C7" stroke-width="1.92231"/>
<path d="M273.966 44.0764H162.232L139.405 66.9038V161.818" stroke="#99A3C7" stroke-width="1.92231"/>
<circle cx="124.026" cy="13.3199" r="3.84462" stroke="#99A3C7" stroke-width="1.92231"/>
<circle cx="170.642" cy="59.4557" r="3.84462" stroke="#99A3C7" stroke-width="1.92231"/>
<circle cx="154.783" cy="74.8343" r="3.84462" stroke="#99A3C7" stroke-width="1.92231"/>
<circle cx="154.783" cy="90.2113" r="3.84462" stroke="#99A3C7" stroke-width="1.92231"/>
<circle cx="77.8907" cy="44.0773" r="3.84462" stroke="#99A3C7" stroke-width="1.92231"/>
<circle cx="31.7555" cy="90.2113" r="3.84462" stroke="#99A3C7" stroke-width="1.92231"/>
<circle cx="16.3769" cy="13.3199" r="3.84462" stroke="#99A3C7" stroke-width="1.92231"/>
<circle cx="0.99852" cy="28.6986" r="3.84462" stroke="#99A3C7" stroke-width="1.92231"/>
<path d="M77.8909 -49.1553V-2.299H46.8937V51.0451L1.23883 96.6999V101.506" stroke="#99A3C7" stroke-width="1.92231"/>
<path d="M31.7554 1.7854V43.8359L-14.8606 90.4519V151.725H11.8114" stroke="#99A3C7" stroke-width="1.92231"/>
<path d="M16.3769 17.1641V36.1469L-17.7441 70.2678" stroke="#99A3C7" stroke-width="1.92231"/>
<path d="M97.1138 -32.8164H123.786V8.99381" stroke="#99A3C7" stroke-width="1.92231"/>
<path d="M108.648 -13.3521V28.6984H81.7355" stroke="#99A3C7" stroke-width="1.92231"/>
<path d="M93.2693 -13.3521V13.32H62.7527V74.8339H50.9785" stroke="#99A3C7" stroke-width="1.92231"/>
<path d="M77.8909 47.9211V90.2119H35.3599" stroke="#99A3C7" stroke-width="1.92231"/>
<path d="M185.54 -28.9717V13.5594H147.574L116.817 44.3163H97.1138" stroke="#99A3C7" stroke-width="1.92231"/>
<path d="M200.919 -28.7305V28.6985H153.822L124.267 58.254V131.782" stroke="#99A3C7" stroke-width="1.92231"/>
<path d="M104.563 59.2153H93.2692V105.351H66.5972" stroke="#99A3C7" stroke-width="1.92231"/>
<path d="M108.648 78.6782V151.726H123.786V160.376" stroke="#99A3C7" stroke-width="1.92231"/>
<path d="M258.348 59.4551H174.247" stroke="#99A3C7" stroke-width="1.92231"/>
<path d="M158.868 74.8335H242.969" stroke="#99A3C7" stroke-width="1.92231"/>
<path d="M159.349 89.9724H200.919V105.351H185.54V160.617" stroke="#99A3C7" stroke-width="1.92231"/>
</g>
<defs>
<clipPath id="clip0_5063_16941">
<rect width="181.333" height="100" fill="white" transform="matrix(-1 0 0 -1 181.667 100)"/>
</clipPath>
</defs>
</svg>
