<svg width="726" height="400" viewBox="0 0 182 100" fill="none" xmlns="http://www.w3.org/2000/svg">
<g clip-path="url(#clip0_5063_16930)">
<rect width="181.333" height="100" transform="matrix(-1 0 0 -1 182 100)" fill="#001A72"/>
<path d="M183.655 95.5665L149.5 73.8333L149.5 36.3845M183.655 95.5665L183.655 58.2338M183.655 95.5665L218.101 73.8333L218.101 36.3845M183.655 58.2338L149.5 36.3845M183.655 58.2338L218.101 36.3845M149.5 36.3845L183.655 15L218.101 36.3845" stroke="#99A3C7" stroke-width="2.07"/>
<path d="M114.552 94.7977L80 73.0645L79.9999 35.6157M114.552 94.7977L114.552 57.465M114.552 94.7977L149.399 73.0645L149.399 35.6157M114.552 57.465L79.9999 35.6157M114.552 57.465L149.399 35.6157M79.9999 35.6157L114.552 14.2312L149.399 35.6157" stroke="#99A3C7" stroke-width="2.07"/>
<path d="M149.65 36.5665L115.098 14.8333L115.098 -22.6155M149.65 36.5665L149.65 -0.76619M149.65 36.5665L184.497 14.8333L184.497 -22.6155M149.65 -0.76619L115.098 -22.6155M149.65 -0.76619L184.497 -22.6155M115.098 -22.6155L149.65 -44L184.497 -22.6155" stroke="#99A3C7" stroke-width="2.07"/>
</g>
<defs>
<clipPath id="clip0_5063_16930">
<rect width="181.333" height="100" fill="white" transform="matrix(-1 0 0 -1 182 100)"/>
</clipPath>
</defs>
</svg>
