<svg width="104" height="104" viewBox="0 0 104 104" fill="none" xmlns="http://www.w3.org/2000/svg">
<g id="Group 219">
<rect id="Rectangle 35" width="104" height="104" rx="30" fill="#222228"/>
<g id="Group">
<path id="Vector" d="M56.3607 42.6199C56.3607 46.2321 54.9194 49.6964 52.3538 52.2506C49.7882 54.8048 46.3086 56.2398 42.6803 56.2398C39.0521 56.2398 35.5724 54.8048 33.0069 52.2506C30.4413 49.6964 29 46.2321 29 42.6199C29 39.0077 30.4413 35.5434 33.0069 32.9892C35.5724 30.4349 39.0521 29 42.6803 29C46.3086 29 49.7882 30.4349 52.3538 32.9892C54.9194 35.5434 56.3607 39.0077 56.3607 42.6199Z" fill="white"/>
<path id="Vector_2" d="M75.4261 62.1788C75.4261 63.968 75.0721 65.7397 74.3844 67.3927C73.6966 69.0457 72.6886 70.5476 71.4178 71.8128C70.1471 73.078 68.6384 74.0815 66.9781 74.7662C65.3177 75.4509 63.5382 75.8033 61.7411 75.8033C58.1116 75.8033 54.6307 74.3679 52.0643 71.8128C49.4978 69.2577 48.056 65.7922 48.056 62.1788C48.056 58.5653 49.4978 55.0998 52.0643 52.5447C54.6307 49.9896 58.1116 48.5542 61.7411 48.5542C63.5382 48.5542 65.3177 48.9066 66.9781 49.5913C68.6384 50.276 70.1471 51.2796 71.4178 52.5447C72.6886 53.8099 73.6966 55.3119 74.3844 56.9649C75.0721 58.6179 75.4261 60.3896 75.4261 62.1788Z" fill="white"/>
<path id="Vector_3" opacity="0.05" fill-rule="evenodd" clip-rule="evenodd" d="M29.0497 43.7855C29.2622 46.3589 30.2003 48.8195 31.7554 50.8821C33.3105 52.9447 35.4188 54.525 37.8362 55.4397C40.2535 56.3545 42.8809 56.5663 45.4138 56.0507C47.9467 55.5351 50.2815 54.313 52.1477 52.5263C54.0138 50.7395 55.3349 48.4611 55.9578 45.955C56.5808 43.449 56.4801 40.818 55.6674 38.3668C54.8547 35.9156 53.3633 33.7446 51.3661 32.1053C49.3688 30.4661 46.9474 29.4257 44.3825 29.1047C40.8998 30.2685 37.7185 32.1885 35.0673 34.727C32.4162 37.2654 30.361 40.359 29.0497 43.7855Z" fill="white"/>
<path id="Vector_4" opacity="0.05" fill-rule="evenodd" clip-rule="evenodd" d="M75.39 61.2009C75.2113 58.5962 74.2895 56.097 72.7336 53.9991C71.1778 51.9012 69.0529 50.2923 66.6105 49.3627C64.168 48.4332 61.5101 48.2218 58.9511 48.7536C56.3922 49.2855 54.0392 50.5383 52.1707 52.3639C50.3021 54.1894 48.9961 56.5114 48.407 59.0551C47.818 61.5988 47.9707 64.2578 48.8469 66.7175C49.7232 69.1773 51.2864 71.3349 53.3516 72.9352C55.4168 74.5354 57.8977 75.5113 60.5007 75.7475C63.8883 74.5427 66.9738 72.618 69.5444 70.1063C72.1149 67.5946 74.1093 64.5557 75.39 61.1994V61.2009Z" fill="white"/>
<path id="Vector_5" opacity="0.1" fill-rule="evenodd" clip-rule="evenodd" d="M29.6902 46.8993C30.4087 49.095 31.6731 51.0728 33.3649 52.6477C35.0567 54.2226 37.1208 55.3432 39.364 55.9047C41.6073 56.4661 43.9565 56.4501 46.1919 55.8581C48.4272 55.266 50.4758 54.1174 52.1459 52.5195C53.816 50.9217 55.0531 48.9268 55.7416 46.7215C56.43 44.5162 56.5473 42.1725 56.0824 39.9096C55.6175 37.6467 54.5857 35.5386 53.0834 33.7823C51.5811 32.0261 49.6574 30.6791 47.4923 29.8674C43.2255 30.7554 39.2944 32.8228 36.1469 35.8341C32.9994 38.8455 30.7621 42.6795 29.6902 46.8993Z" fill="white"/>
<path id="Vector_6" opacity="0.1" fill-rule="evenodd" clip-rule="evenodd" d="M74.7685 57.9995C74.0605 55.7779 72.7952 53.7741 71.0928 52.1789C69.3905 50.5838 67.3079 49.4503 65.0431 48.8863C62.7783 48.3223 60.4067 48.3465 58.154 48.9568C55.9012 49.567 53.8423 50.7429 52.173 52.3726C50.5038 54.0023 49.2798 56.0315 48.6176 58.2672C47.9553 60.503 47.8768 62.8707 48.3895 65.1453C48.9022 67.4199 49.9891 69.5256 51.5467 71.262C53.1043 72.9985 55.0808 74.3079 57.2882 75.0657C61.5003 74.1215 65.3662 72.0251 68.4534 69.011C71.5406 65.997 73.7272 62.1843 74.7685 57.9995Z" fill="white"/>
<path id="Vector_7" opacity="0.1" fill-rule="evenodd" clip-rule="evenodd" d="M30.1934 48.1907C31.0835 50.1941 32.4433 51.9541 34.1579 53.3219C35.8725 54.6897 37.8915 55.6251 40.0444 56.0491C42.1972 56.4731 44.4206 56.3733 46.5267 55.758C48.6327 55.1427 50.5596 54.0301 52.1444 52.5141C53.7292 50.9981 54.9254 49.1234 55.6319 47.0482C56.3385 44.9731 56.5346 42.7586 56.2036 40.5918C55.8727 38.425 55.0245 36.3696 53.7306 34.5994C52.4368 32.8291 50.7354 31.3959 48.7701 30.4209C44.2252 31.1276 40.0068 33.2104 36.6847 36.3882C33.3626 39.566 31.0968 43.6856 30.1934 48.1907Z" fill="white"/>
<path id="Vector_8" opacity="0.1" fill-rule="evenodd" clip-rule="evenodd" d="M74.264 56.681C73.3785 54.6544 72.0136 52.8728 70.2867 51.4892C68.5598 50.1057 66.5225 49.1616 64.3497 48.738C62.177 48.3145 59.9337 48.4241 57.8128 49.0576C55.6918 49.691 53.7565 50.8293 52.173 52.3746C50.5896 53.92 49.4054 55.8262 48.7222 57.9295C48.039 60.0328 47.8771 62.2704 48.2506 64.45C48.624 66.6296 49.5216 68.686 50.8662 70.4427C52.2107 72.1993 53.9622 73.6037 55.9699 74.5351C60.4751 73.7705 64.6397 71.6518 67.9083 68.4619C71.1769 65.2719 73.3941 61.1622 74.264 56.681Z" fill="white"/>
<path id="Vector_9" d="M73.8831 52.5032C73.8831 55.3361 73.3227 58.1412 72.2338 60.7584C71.1449 63.3757 69.5488 65.7537 67.5368 67.7568C65.5248 69.76 63.1361 71.3489 60.5073 72.433C57.8784 73.5171 55.0609 74.0751 52.2154 74.0751C49.37 74.0751 46.5524 73.5171 43.9236 72.433C41.2947 71.3489 38.9061 69.76 36.8941 67.7568C34.882 65.7537 33.286 63.3757 32.1971 60.7584C31.1082 58.1412 30.5477 55.3361 30.5477 52.5032C30.5477 49.6704 31.1082 46.8653 32.1971 44.2481C33.286 41.6308 34.882 39.2528 36.8941 37.2496C38.9061 35.2465 41.2947 33.6575 43.9236 32.5735C46.5524 31.4894 49.37 30.9314 52.2154 30.9314C55.0609 30.9314 57.8784 31.4894 60.5073 32.5735C63.1361 33.6575 65.5248 35.2465 67.5368 37.2496C69.5488 39.2528 71.1449 41.6308 72.2338 44.2481C73.3227 46.8653 73.8831 49.6704 73.8831 52.5032Z" fill="white"/>
<path id="Vector_10" fill-rule="evenodd" clip-rule="evenodd" d="M46.1224 51.7542C45.2468 51.1785 44.5161 50.4086 43.9874 49.5045C43.4769 48.5493 43.2249 47.4775 43.2564 46.3951C43.2177 45.0216 43.687 43.6819 44.5746 42.6321C45.4971 41.5779 46.6827 40.7866 48.0107 40.3387C49.4551 39.829 50.977 39.573 52.5089 39.5821C53.5111 39.5726 54.5123 39.6494 55.5014 39.8114C56.2094 39.9206 56.9047 40.0999 57.5771 40.3465C58.1946 40.5553 58.752 40.9108 59.2014 41.3825C59.5326 41.7705 59.7108 42.2658 59.7028 42.7757C59.7146 43.0405 59.6741 43.3051 59.5835 43.5543C59.4929 43.8036 59.3541 44.0325 59.1749 44.2281C59.0054 44.4084 58.7996 44.5508 58.571 44.646C58.3425 44.7412 58.0964 44.787 57.8489 44.7804C57.5083 44.7776 57.1723 44.7021 56.8633 44.5589C56.1019 44.2184 55.3175 43.9317 54.5159 43.7008C53.778 43.5065 53.0173 43.412 52.2543 43.42C51.2598 43.3834 50.2759 43.6348 49.4211 44.1439C49.0604 44.3628 48.7651 44.6745 48.5662 45.0464C48.3673 45.4182 48.272 45.8366 48.2903 46.2579C48.285 46.8109 48.4957 47.3442 48.8776 47.7447C49.3313 48.2151 49.8676 48.5985 50.4597 48.8757C51.123 49.2044 52.1122 49.6402 53.4272 50.1831C53.5729 50.2292 53.7149 50.286 53.8521 50.3532C55.1354 50.8603 56.3658 51.492 57.5256 52.2394C58.4415 52.8359 59.2139 53.6277 59.7871 54.5577C60.3516 55.5352 60.6344 56.6497 60.604 57.7778C60.6514 59.1591 60.2551 60.5192 59.4732 61.6594C58.677 62.7389 57.5754 63.5556 56.3104 64.0043C54.7859 64.5484 53.1748 64.8106 51.5561 64.7781C49.3318 64.8559 47.1181 64.4375 45.076 63.5534C44.5539 63.3211 44.0962 62.9656 43.7422 62.5175C43.4482 62.1068 43.2959 61.6118 43.308 61.1071C43.2934 60.8409 43.3368 60.5747 43.4352 60.3269C43.5336 60.0791 43.6847 59.8556 43.878 59.6718C44.2833 59.3173 44.8095 59.1319 45.3477 59.1538C45.9475 59.162 46.5366 59.3134 47.0658 59.5954C47.7239 59.924 48.2429 60.1705 48.623 60.3349C49.057 60.5164 49.5066 60.6584 49.9662 60.7592C50.5329 60.8834 51.1119 60.9431 51.692 60.9371C52.718 61.0103 53.739 60.7384 54.5924 60.1648C54.9119 59.9151 55.1672 59.593 55.3372 59.2251C55.5072 58.8572 55.5871 58.4541 55.5701 58.0493C55.5711 57.4752 55.352 56.9225 54.9579 56.5048C54.437 55.9676 53.8273 55.5243 53.1555 55.1943C52.361 54.7761 51.2438 54.2665 49.8037 53.6653C48.5158 53.1527 47.2826 52.5124 46.1224 51.7542Z" fill="black"/>
</g>
</g>
</svg>
