<svg width="104" height="104" viewBox="0 0 104 104" fill="none" xmlns="http://www.w3.org/2000/svg">
<g id="Group 217">
<rect id="Rectangle 37" width="104" height="104" rx="30" fill="#222228"/>
<g id="Group">
<path id="Vector" d="M48.3048 51.4355C48.3048 51.4355 52.361 51.1271 52.361 46.2693C52.361 41.4155 49.61 39.0228 45.405 39.0228L31 39V65.8239H45.74C45.74 65.8239 53.11 66.0572 53.11 57.7767C53.11 57.7767 53.6514 51.4355 48.3048 51.4355ZM36.36 43.0236H43.73C43.73 43.0236 46.2519 43.0652 46.2519 46.3377C46.2519 49.7295 43.73 49.7295 43.73 49.7295H36.36V43.0236ZM44.4 61.8003H36.36V53.7531H44.4C44.4 53.7531 48.42 53.7947 48.42 57.7767C48.42 61.7587 44.9789 61.8003 44.4 61.8003Z" fill="white"/>
<path id="Vector_2" d="M64.5004 45.7065C54.433 45.7065 54.4504 55.7655 54.4504 55.7655C54.4504 55.7655 53.7804 65.8244 64.5004 65.8244C64.5004 65.8244 73.8804 65.8244 73.8804 57.7773H68.5204C68.5204 57.7773 68.5204 61.8009 64.5004 61.8009C64.5004 61.8009 60.4804 61.8009 60.4804 56.4361C60.4804 56.4361 71.2004 56.4361 73.8804 56.4361C73.8804 53.7537 73.8804 45.7065 64.5004 45.7065ZM60.4804 53.7537C60.4804 53.7537 60.392 49.7301 64.5004 49.7301C68.6075 49.7301 68.5204 53.7537 68.5204 53.7537H60.4804Z" fill="white"/>
<path id="Vector_3" d="M69.8606 41.6826H59.1406V44.365H69.8606V41.6826Z" fill="white"/>
</g>
</g>
</svg>
