<svg width="104" height="104" viewBox="0 0 104 104" fill="none" xmlns="http://www.w3.org/2000/svg">
<g id="Group 210">
<g id="Group 134">
<rect id="Rectangle 30" width="104" height="104" rx="30" fill="#222228"/>
</g>
<g id="Vector">
<path d="M74.9788 40.3086C74.4176 38.2223 72.7572 36.5764 70.6448 36.0123C66.8252 35 51.5 35 51.5 35C51.5 35 36.1826 35 32.3552 36.0123C30.2506 36.5686 28.5902 38.2145 28.0212 40.3086C27 44.095 27 52 27 52C27 52 27 59.905 28.0212 63.6914C28.5824 65.7777 30.2428 67.4236 32.3552 67.9877C36.1826 69 51.5 69 51.5 69C51.5 69 66.8252 69 70.6448 67.9877C72.7494 67.4314 74.4098 65.7855 74.9788 63.6914C76 59.905 76 52 76 52C76 52 76 44.095 74.9788 40.3086Z" fill="white"/>
<path d="M46.6047 59.2868L59.3341 52L46.6047 44.7132V59.2868Z" fill="black"/>
</g>
</g>
</svg>
