<svg width="104" height="104" viewBox="0 0 104 104" fill="none" xmlns="http://www.w3.org/2000/svg">
<g id="Group 212">
<rect id="Rectangle 32" width="104" height="104" rx="30" fill="#222228"/>
<path id="Vector" d="M30.4523 49.8071C30.4523 49.8071 48.1434 42.3434 54.2789 39.7153C56.631 38.6642 64.6072 35.3001 64.6072 35.3001C64.6072 35.3001 68.2887 33.8285 67.9818 37.4026C67.8795 38.8744 67.0615 44.0253 66.2434 49.5968C65.0162 57.4811 63.6869 66.1011 63.6869 66.1011C63.6869 66.1011 63.4824 68.519 61.744 68.9394C60.0056 69.3599 57.1422 67.4678 56.631 67.0472C56.2218 66.7319 48.9614 62.0013 46.3027 59.6886C45.5868 59.0579 44.7688 57.7965 46.4048 56.3247C50.0863 52.8557 54.4834 48.5457 57.1422 45.8125C58.3694 44.551 59.5964 41.6076 54.4834 45.1817C47.223 50.3327 40.0648 55.1684 40.0648 55.1684C40.0648 55.1684 38.4286 56.2195 35.3608 55.2734C32.2929 54.3275 28.7138 53.0659 28.7138 53.0659C28.7138 53.0659 26.2597 51.4891 30.4523 49.8071Z" fill="white"/>
</g>
</svg>
