<svg width="104" height="104" viewBox="0 0 104 104" fill="none" xmlns="http://www.w3.org/2000/svg">
<g id="Group 213">
<rect id="Rectangle 33" width="104" height="104" rx="30" fill="#222228"/>
<g id="Group 3">
<path id="Vector" d="M73.8539 50.1552C73.8603 50.592 73.8056 51.0281 73.6898 51.4498C73.574 51.8715 73.3986 52.2757 73.1686 52.6487C72.9394 53.0218 72.6579 53.3614 72.333 53.6572C72.008 53.9529 71.6429 54.2016 71.248 54.3962C71.2568 54.5125 71.2641 54.6297 71.2681 54.7469C71.2778 54.9806 71.2778 55.2147 71.2681 55.4484C71.2641 55.5656 71.2568 55.6828 71.248 55.7992C71.248 62.9419 62.8513 68.7454 52.4921 68.7454C42.133 68.7454 33.7363 62.9419 33.7363 55.7992C33.7274 55.6828 33.7202 55.5656 33.7162 55.4484C33.7065 55.2147 33.7065 54.9806 33.7162 54.7469C33.7202 54.6297 33.7274 54.5125 33.7363 54.3962C33.1176 54.1143 32.5681 53.7025 32.1258 53.1894C31.6835 52.6763 31.359 52.074 31.1747 51.4243C30.9907 50.7743 30.9515 50.0924 31.0598 49.4259C31.1681 48.7594 31.4214 48.1242 31.802 47.5643C32.1823 47.0046 32.6809 46.5335 33.2632 46.1839C33.8456 45.8342 34.4977 45.6144 35.1744 45.5395C35.8511 45.4643 36.5362 45.5359 37.1823 45.7492C37.8283 45.9626 38.4199 46.3127 38.9159 46.7751C39.8366 46.1565 40.8013 45.6048 41.8024 45.1242C42.8038 44.6443 43.8389 44.2361 44.8997 43.9045C45.9606 43.5729 47.0447 43.3186 48.1426 43.1424C49.2404 42.9662 50.3503 42.8698 51.4627 42.853L53.8433 31.7882C53.8699 31.6598 53.9222 31.5387 53.997 31.4302C54.0709 31.3226 54.1667 31.2302 54.2768 31.1592C54.3878 31.0883 54.5117 31.0396 54.642 31.0157C54.7715 30.9926 54.905 30.995 55.0337 31.0229L62.9156 32.5854C63.7111 31.231 65.3808 30.6506 66.855 31.215C68.3292 31.7794 69.1721 33.3219 68.8424 34.8541C68.5134 36.3863 67.1091 37.4545 65.5312 37.374C63.9523 37.2935 62.6663 36.0882 62.4974 34.5305L55.6128 33.0956L53.5216 43.0443C54.6203 43.0675 55.7165 43.1695 56.8007 43.3489C58.9718 43.7076 61.0793 44.375 63.058 45.3306C64.0463 45.8074 64.9986 46.354 65.9076 46.9665C66.5611 46.3445 67.3824 45.9234 68.2721 45.7539C69.1619 45.5839 70.0823 45.6728 70.9222 46.0098C71.7623 46.3467 72.486 46.9173 73.0061 47.6528C73.5264 48.3884 73.8208 49.2574 73.8539 50.1552ZM41.9271 54.5644C42.0896 54.951 42.326 55.3025 42.6252 55.5983C42.9236 55.8948 43.2783 56.1292 43.6684 56.2902C44.0588 56.4503 44.4772 56.5326 44.8997 56.5326C46.201 56.5326 47.3737 55.7553 47.8723 54.5644C48.3702 53.3726 48.0943 52.0014 47.1742 51.0895C46.2541 50.1775 44.8708 49.9041 43.6684 50.3975C42.4668 50.8918 41.6826 52.054 41.6826 53.3439C41.6826 53.7624 41.7654 54.1769 41.9271 54.5644ZM60.3532 62.2189C60.5181 62.0594 60.6122 61.8418 60.6154 61.6138C60.6186 61.385 60.5293 61.165 60.3685 61.0016C60.2076 60.8381 59.988 60.7449 59.758 60.7417C59.5272 60.7385 59.3052 60.827 59.1194 60.9649C58.6357 61.3088 58.1234 61.6115 57.5881 61.8697C57.0527 62.128 56.4963 62.3411 55.9248 62.5066C55.3538 62.6717 54.7691 62.7888 54.1779 62.8566C53.586 62.9244 52.99 62.9419 52.3956 62.91C51.8021 62.9363 51.2069 62.9124 50.6174 62.8391C50.0277 62.7665 49.4454 62.6438 48.8769 62.4724C48.3075 62.3018 47.7549 62.0833 47.2233 61.8203C46.6917 61.5572 46.1834 61.2495 45.704 60.9011C45.5375 60.7656 45.326 60.6962 45.1104 60.7066C44.8949 60.717 44.6914 60.8071 44.5386 60.9577C44.3866 61.1092 44.2957 61.3109 44.2853 61.5245C44.2748 61.7382 44.3448 61.9478 44.4815 62.1128C45.0469 62.5353 45.6477 62.9084 46.2775 63.2289C46.9072 63.5494 47.5643 63.8148 48.2399 64.0237C48.9155 64.2325 49.608 64.3832 50.3101 64.4749C51.0123 64.5658 51.7208 64.5968 52.4278 64.5681C53.1348 64.5968 53.8433 64.5658 54.5455 64.4749C55.9518 64.2915 57.3158 63.8701 58.5781 63.2289C59.2079 62.9084 59.8087 62.5353 60.3741 62.1128L60.3532 62.2189ZM59.7628 56.7877C60.1988 56.7925 60.6315 56.7088 61.0344 56.543C61.4374 56.3763 61.8017 56.1308 62.1057 55.8207C62.4097 55.5106 62.6462 55.1423 62.8022 54.7381C62.9584 54.3344 63.0298 53.9034 63.0121 53.4714C63.0121 52.1816 62.228 51.0193 61.0264 50.5251C59.824 50.0316 58.4406 50.305 57.5205 51.217C56.6004 52.129 56.3245 53.5001 56.8224 54.6919C57.321 55.8829 58.4937 56.6601 59.795 56.6601L59.7628 56.7877Z" fill="white"/>
</g>
</g>
</svg>
